<svg xmlns="http://www.w3.org/2000/svg" width="980" height="440" viewBox="0 0 980 440">
<rect width="100%" height="100%" fill="white" />
<text x="68" y="30" font-size="20" font-weight="700" fill="#111827">3M Treasury</text>
<text x="68" y="50" font-size="12" fill="#6b7280">Raw value</text>
<line x1="598" y1="22" x2="620" y2="22" stroke="#2563eb" stroke-width="3" /><text x="628" y="26" font-size="13" fill="#111827">3M Treasury Yield</text>
<line x1="68" y1="388.0" x2="954" y2="388.0" stroke="#e5e7eb" /><text x="58" y="392.0" text-anchor="end" font-size="12" fill="#6b7280">-0.66</text>
<line x1="68" y1="304.5" x2="954" y2="304.5" stroke="#e5e7eb" /><text x="58" y="308.5" text-anchor="end" font-size="12" fill="#6b7280">1.73</text>
<line x1="68" y1="221.0" x2="954" y2="221.0" stroke="#e5e7eb" /><text x="58" y="225.0" text-anchor="end" font-size="12" fill="#6b7280">4.13</text>
<line x1="68" y1="137.5" x2="954" y2="137.5" stroke="#e5e7eb" /><text x="58" y="141.5" text-anchor="end" font-size="12" fill="#6b7280">6.53</text>
<line x1="68" y1="54.0" x2="954" y2="54.0" stroke="#e5e7eb" /><text x="58" y="58.0" text-anchor="end" font-size="12" fill="#6b7280">8.92</text>
<line x1="68" y1="388" x2="954" y2="388" stroke="#9ca3af" />
<line x1="68" y1="54" x2="68" y2="388" stroke="#9ca3af" />
<polyline fill="none" stroke="#2563eb" stroke-width="2.2" points="68.0,92.0 69.4,88.5 70.7,86.4 72.1,83.0 73.3,80.9 74.6,85.4 76.0,80.9 77.4,89.2 78.8,88.5 80.1,87.5 81.5,93.8 82.8,97.9 84.0,99.0 85.4,100.0 86.8,108.1 88.1,111.2 89.6,112.2 90.9,119.2 92.4,130.4 93.8,143.6 95.1,155.1 96.5,146.4 97.9,156.2 99.3,165.2 100.6,167.3 102.0,170.1 103.3,163.5 104.7,164.5 105.9,164.2 107.2,174.6 108.6,173.9 110.0,179.2 111.4,186.5 112.7,194.2 114.1,207.4 115.5,217.9 116.9,231.8 118.3,226.9 119.7,227.3 121.1,221.7 122.4,220.0 123.8,232.9 125.0,235.3 126.4,232.9 127.7,236.3 129.1,250.6 130.4,251.7 131.8,255.5 133.2,261.8 134.5,267.7 135.9,259.0 137.1,255.9 138.7,247.1 139.9,252.4 141.5,256.2 142.9,260.0 144.3,260.0 145.5,259.0 146.8,261.8 148.2,264.6 149.5,261.8 150.9,255.5 152.3,254.8 153.6,256.6 155.0,254.5 156.2,258.3 157.6,259.7 158.9,261.1 160.3,256.2 161.6,253.8 163.1,254.1 164.4,255.9 165.8,259.7 167.2,255.9 168.6,244.4 169.9,237.4 171.3,234.2 172.7,227.6 174.1,214.7 175.5,216.8 176.7,215.8 178.1,212.3 179.4,210.5 180.7,202.5 182.1,201.1 183.4,187.5 184.8,183.7 186.2,172.2 187.6,157.9 189.0,164.9 190.5,160.3 191.8,156.5 193.2,157.9 194.5,158.3 195.7,160.7 197.1,160.3 198.5,160.3 199.9,164.2 201.2,170.8 202.6,170.5 203.9,171.5 205.2,173.9 206.6,176.4 207.8,174.3 209.2,176.4 210.6,172.5 212.0,173.2 213.4,191.4 214.8,187.2 216.2,193.5 217.6,190.0 218.9,185.1 220.2,187.2 221.5,185.8 222.7,185.4 224.1,181.6 225.5,183.7 226.9,182.0 228.2,184.4 229.5,183.7 230.9,179.9 232.2,186.8 233.6,184.1 235.0,184.4 236.4,192.1 237.8,183.4 239.3,184.4 240.6,184.7 242.0,182.3 243.2,176.4 244.6,179.9 245.9,182.3 247.3,186.5 248.7,191.4 250.0,184.4 251.4,184.4 252.7,179.9 253.9,182.3 255.3,188.6 256.7,185.8 258.0,184.7 259.4,180.9 260.8,183.7 262.3,179.5 263.7,184.7 265.0,183.0 266.4,184.4 267.8,184.4 269.2,187.9 270.5,186.8 271.9,184.7 273.2,185.1 274.6,187.5 275.8,187.9 277.1,189.3 278.5,193.8 279.9,202.2 281.3,224.8 282.6,208.1 284.0,203.9 285.4,208.5 286.8,209.1 288.2,209.1 289.6,207.4 291.0,204.6 292.3,207.8 293.5,213.7 294.8,203.9 296.1,202.5 297.5,202.2 298.9,202.2 300.3,201.1 301.6,196.3 302.8,193.5 304.2,198.3 305.6,189.3 306.9,187.2 308.4,180.2 309.7,177.1 311.1,176.4 312.5,170.1 313.8,165.2 315.2,161.7 316.6,160.0 317.9,162.1 319.3,149.2 320.5,161.7 321.9,161.7 323.3,154.4 324.6,148.1 325.9,146.4 327.3,148.5 328.7,149.5 330.1,145.4 331.4,141.2 332.8,144.3 334.0,155.1 335.6,184.1 337.0,186.8 338.2,190.0 339.6,200.4 340.9,214.4 342.3,230.1 343.6,235.3 345.0,236.7 346.4,242.6 347.8,238.4 349.1,240.5 350.3,247.8 351.7,251.0 353.3,282.4 354.7,287.6 355.9,301.2 357.5,302.9 358.7,305.4 360.3,309.9 361.6,303.3 363.0,303.3 364.2,300.1 365.6,303.6 367.0,304.3 368.3,303.6 369.7,304.0 371.0,304.7 372.4,305.0 373.8,307.8 374.9,307.4 376.3,306.1 377.7,310.2 379.1,307.4 380.5,322.4 381.9,322.4 383.3,323.8 384.7,323.8 386.1,324.2 387.4,322.8 388.8,324.5 390.1,324.9 391.5,324.9 392.8,328.4 394.2,329.1 395.4,334.6 396.8,333.2 398.2,331.8 399.5,330.1 400.9,331.8 402.2,332.9 403.6,331.5 405.0,331.5 406.4,332.5 407.8,332.2 409.3,333.9 410.6,331.8 412.0,331.2 413.3,331.8 414.7,332.2 415.9,330.8 417.2,329.1 418.6,319.6 420.0,322.4 421.4,317.2 422.8,314.8 424.1,309.5 425.5,305.0 426.9,305.0 428.2,295.6 429.6,288.3 431.0,286.9 432.4,284.1 433.8,282.4 435.0,276.1 436.4,268.8 437.7,266.0 439.1,268.1 440.4,264.9 441.8,262.5 443.2,260.0 444.6,252.7 445.9,245.1 447.1,242.3 448.4,243.7 449.8,244.0 451.2,234.2 452.5,227.6 453.9,227.3 455.3,229.4 456.8,218.6 458.2,209.8 459.5,206.4 460.9,205.3 462.3,202.9 463.7,200.4 465.0,195.2 466.2,196.3 467.6,194.9 469.0,190.0 470.3,187.2 471.6,188.2 473.0,191.7 474.4,194.9 475.8,187.5 477.1,187.5 478.5,188.9 479.7,193.8 481.3,187.9 482.7,185.8 483.9,184.7 485.3,187.2 486.6,188.9 487.9,190.7 489.3,194.2 490.7,194.2 492.0,203.6 493.4,191.7 494.6,195.9 495.9,232.9 497.3,215.4 498.6,234.9 500.0,225.2 501.4,233.9 502.8,258.6 504.2,259.0 505.6,252.7 507.0,287.9 508.4,286.5 509.7,313.4 511.1,316.2 512.5,318.3 513.7,306.1 515.1,299.1 516.4,298.4 517.8,306.8 519.1,305.7 520.4,302.2 521.8,307.1 523.2,332.2 524.6,321.7 525.8,354.2 527.4,362.5 528.6,364.3 530.2,360.8 531.5,355.6 532.9,354.9 534.1,358.0 535.5,357.3 536.9,361.5 538.2,359.0 539.6,360.1 540.9,358.0 542.3,358.7 543.6,358.3 544.8,359.0 546.2,360.1 547.6,361.5 549.0,362.9 550.4,362.5 551.8,362.9 553.1,362.5 554.6,363.2 556.0,361.8 557.3,360.4 558.7,359.7 560.0,359.0 561.3,359.4 562.5,359.4 563.9,360.1 565.3,360.4 566.7,359.7 568.0,359.4 569.3,359.4 570.7,359.7 572.0,360.4 573.4,360.1 574.8,360.1 576.2,359.7 577.6,359.0 578.8,359.7 580.2,359.7 581.6,360.4 582.9,362.2 584.3,362.9 585.7,362.9 587.0,363.6 588.4,363.2 589.7,364.3 591.1,364.3 592.3,364.6 593.7,364.6 595.1,364.6 596.4,365.0 597.8,364.3 599.2,364.6 600.6,364.3 602.0,364.6 603.4,363.2 604.8,361.8 606.2,362.2 607.5,361.5 608.8,361.8 610.0,361.8 611.3,361.5 612.7,361.8 614.1,361.8 615.5,361.8 616.8,361.1 618.1,361.1 619.5,361.1 620.7,361.1 622.1,360.8 623.7,361.8 625.1,361.8 626.5,363.2 628.0,362.2 629.3,361.8 630.7,361.1 631.9,362.5 633.3,362.9 634.6,363.2 635.9,363.6 637.3,363.2 638.7,363.9 640.1,364.3 641.4,362.9 642.6,363.9 644.0,364.6 645.3,363.2 646.7,363.6 648.1,362.5 649.5,362.5 651.0,362.5 652.4,363.6 653.7,363.9 655.1,363.2 656.4,363.2 657.8,363.6 659.2,363.9 660.6,363.6 661.9,363.6 663.3,363.6 664.5,363.9 665.8,363.6 667.2,363.9 668.5,364.3 669.9,364.3 671.3,363.9 672.7,364.3 674.0,363.9 675.5,363.9 676.9,364.3 678.3,364.3 679.6,364.3 681.0,363.6 682.2,364.6 683.5,364.6 684.9,364.6 686.2,364.6 687.6,364.3 688.9,363.2 690.3,361.5 691.5,364.3 692.9,365.0 694.3,364.6 695.6,363.2 697.1,358.7 698.4,356.9 699.9,358.0 701.2,353.5 702.6,354.2 704.0,353.8 705.4,357.6 706.7,356.9 708.0,356.6 709.4,353.1 710.8,355.2 712.2,354.2 713.3,355.2 714.7,354.5 716.1,352.8 717.4,355.6 718.8,352.8 720.1,350.0 721.6,348.2 722.9,346.8 724.4,346.8 725.8,347.2 727.2,346.8 728.5,337.8 729.8,337.4 731.2,336.7 732.4,334.3 733.8,330.8 735.2,331.5 736.6,328.4 737.9,327.3 739.2,330.1 740.6,329.1 741.9,329.8 743.3,327.0 744.5,322.1 745.9,320.7 747.3,317.9 748.7,315.1 750.1,313.4 751.5,307.8 752.8,303.3 754.2,305.0 755.6,300.5 756.9,298.0 758.3,297.3 759.6,297.7 761.0,294.9 762.2,294.9 763.6,292.5 765.0,290.0 766.3,287.2 767.7,283.4 769.1,282.0 770.5,281.0 771.9,281.0 773.3,280.6 774.7,280.6 776.1,279.6 777.5,278.5 778.8,280.6 780.2,280.3 781.5,281.7 782.9,285.1 784.1,291.1 785.5,293.2 786.8,294.6 788.2,295.6 789.6,297.0 790.9,305.0 792.3,308.1 793.7,310.2 795.1,310.6 796.5,310.9 797.9,310.9 799.3,310.2 800.7,331.8 802.0,364.3 803.4,355.9 804.6,360.8 805.9,360.8 807.3,359.0 808.6,360.1 810.0,360.4 811.4,361.1 812.7,361.1 814.1,361.5 815.3,361.5 816.7,361.8 818.1,362.5 819.5,362.2 821.1,361.8 822.5,361.8 823.7,363.6 825.1,363.6 826.4,364.3 827.7,364.3 829.1,364.3 830.4,364.3 831.8,363.9 833.0,363.2 834.4,363.2 835.7,362.9 837.0,363.2 838.4,363.9 839.8,363.2 841.2,363.2 842.6,362.9 843.9,363.2 845.3,362.2 846.7,358.3 848.1,350.0 849.5,351.7 850.7,345.8 852.0,337.4 853.4,335.3 854.7,328.0 856.1,304.3 857.6,297.0 858.9,279.9 860.2,270.8 861.6,259.0 863.0,246.8 864.4,226.6 865.6,218.2 867.2,211.2 868.4,214.7 869.9,201.1 871.3,200.4 872.5,196.3 873.9,190.3 875.3,191.7 876.6,185.1 877.9,180.6 879.3,171.5 880.7,177.1 882.1,173.6 883.4,171.5 884.6,171.5 886.0,171.5 887.4,171.2 888.8,169.8 890.1,171.8 891.5,175.0 892.8,175.7 894.3,174.6 895.7,176.0 897.1,175.3 898.4,173.9 899.8,176.0 901.1,176.0 902.3,174.3 903.7,174.6 905.1,173.6 906.5,175.7 907.9,177.8 909.2,181.6 910.6,187.2 911.9,200.8 913.3,200.4 914.7,203.6 916.1,208.5 917.4,213.0 918.9,213.0 920.3,214.0 921.7,215.1 923.0,213.7 924.2,215.8 925.6,214.4 926.9,212.3 928.3,210.2 929.7,211.9 931.1,211.2 932.5,214.4 933.8,215.8 935.2,224.1 936.5,224.8 937.9,229.4 939.3,226.6 940.7,234.9 942.1,236.7 943.6,236.0 944.9,236.3 946.3,235.3 947.5,234.6 948.8,236.7 950.1,236.7 951.5,237.0 952.9,232.9" />
<text x="68.0" y="422" text-anchor="middle" font-size="12" fill="#6b7280">1990-01-02</text>
<text x="511.0" y="422" text-anchor="middle" font-size="12" fill="#6b7280">2008-03-30</text>
<text x="954.0" y="422" text-anchor="middle" font-size="12" fill="#6b7280">2026-06-26</text>
</svg>