<svg xmlns="http://www.w3.org/2000/svg" width="980" height="440" viewBox="0 0 980 440">
<rect width="100%" height="100%" fill="white" />
<text x="68" y="30" font-size="20" font-weight="700" fill="#111827">DXY</text>
<text x="68" y="50" font-size="12" fill="#6b7280">Raw value</text>
<line x1="598" y1="22" x2="620" y2="22" stroke="#2563eb" stroke-width="3" /><text x="628" y="26" font-size="13" fill="#111827">DXY</text>
<line x1="68" y1="388.0" x2="954" y2="388.0" stroke="#e5e7eb" /><text x="58" y="392.0" text-anchor="end" font-size="12" fill="#6b7280">67.36</text>
<line x1="68" y1="304.5" x2="954" y2="304.5" stroke="#e5e7eb" /><text x="58" y="308.5" text-anchor="end" font-size="12" fill="#6b7280">81.74</text>
<line x1="68" y1="221.0" x2="954" y2="221.0" stroke="#e5e7eb" /><text x="58" y="225.0" text-anchor="end" font-size="12" fill="#6b7280">96.12</text>
<line x1="68" y1="137.5" x2="954" y2="137.5" stroke="#e5e7eb" /><text x="58" y="141.5" text-anchor="end" font-size="12" fill="#6b7280">110.49</text>
<line x1="68" y1="54.0" x2="954" y2="54.0" stroke="#e5e7eb" /><text x="58" y="58.0" text-anchor="end" font-size="12" fill="#6b7280">124.87</text>
<line x1="68" y1="388" x2="954" y2="388" stroke="#9ca3af" />
<line x1="68" y1="54" x2="68" y2="388" stroke="#9ca3af" />
<polyline fill="none" stroke="#2563eb" stroke-width="2.2" points="68.0,237.9 69.2,235.1 70.5,245.0 71.9,237.4 73.2,231.6 74.5,235.1 75.7,239.0 77.0,248.7 78.4,241.2 79.7,247.7 81.0,254.9 82.2,270.8 83.6,285.0 84.9,274.3 86.2,285.0 87.5,297.4 88.7,302.3 90.1,295.7 91.4,299.5 92.7,285.9 94.1,300.7 95.3,303.5 96.6,284.2 97.9,245.7 99.2,259.0 100.6,240.9 101.8,246.4 103.1,222.2 104.4,215.5 105.8,233.3 107.1,240.8 108.3,236.2 109.6,251.0 110.9,253.0 112.3,253.7 113.6,271.3 114.8,281.2 116.1,295.4 117.5,267.1 118.8,275.7 120.1,259.8 121.3,251.6 122.6,257.4 124.0,255.3 125.3,266.5 126.6,272.8 127.8,280.3 129.2,295.3 130.5,301.7 131.8,306.9 133.1,321.5 134.3,292.2 135.7,294.1 137.0,264.4 138.3,252.6 139.7,258.2 140.9,242.8 142.2,243.5 143.5,230.5 144.8,237.7 146.2,239.6 147.4,249.4 148.7,260.9 150.0,252.7 151.4,254.0 152.7,236.7 153.9,229.8 155.2,230.3 156.5,233.2 157.9,249.5 159.2,242.9 160.4,230.7 161.7,227.6 163.1,218.9 164.4,223.6 165.7,219.2 166.9,220.6 168.2,226.6 169.6,228.6 170.9,234.9 172.2,229.6 173.4,240.8 174.8,241.7 176.1,245.9 177.4,259.0 178.7,257.4 179.9,262.7 181.3,260.3 182.6,270.9 183.9,268.7 185.3,281.6 186.5,266.0 187.8,258.6 189.1,265.2 190.4,266.4 191.8,267.0 193.0,280.7 194.3,294.4 195.6,305.1 197.0,309.0 198.3,293.1 199.5,299.9 200.8,302.8 202.1,301.3 203.5,307.9 204.8,279.9 206.0,279.7 207.3,291.1 208.7,289.5 210.0,290.7 211.3,288.2 212.5,284.8 213.8,284.3 215.2,272.8 216.5,275.5 217.8,277.2 219.0,277.0 220.4,271.3 221.7,266.2 223.0,264.1 224.3,265.8 225.5,269.2 226.9,275.5 228.2,276.3 229.5,278.5 230.9,271.0 232.1,267.4 233.4,270.1 234.7,276.1 236.0,264.1 237.4,264.1 238.6,257.8 239.9,240.1 241.2,224.4 242.6,223.6 243.9,229.1 245.1,220.0 246.4,222.0 247.7,230.0 249.1,225.1 250.4,224.6 251.6,203.5 252.9,198.1 254.3,200.8 255.6,207.8 256.9,217.2 258.1,223.8 259.4,217.5 260.8,204.4 262.1,202.6 263.4,193.1 264.6,201.3 266.0,198.8 267.3,196.2 268.6,191.3 269.9,202.3 271.1,198.9 272.5,201.0 273.8,191.9 275.1,189.8 276.5,188.8 277.7,185.8 279.0,218.0 280.3,220.7 281.6,239.0 283.0,223.9 284.2,216.8 285.5,231.5 286.8,230.2 288.2,229.1 289.5,217.6 290.7,197.0 292.0,201.5 293.4,196.5 294.7,199.0 296.1,190.4 297.5,185.6 298.8,175.7 300.0,189.4 301.3,197.9 302.6,199.7 304.0,200.8 305.3,205.6 306.5,203.9 307.8,192.6 309.2,194.3 310.5,187.2 311.8,186.5 313.0,173.5 314.3,175.1 315.7,167.2 317.0,168.4 318.4,148.0 319.7,137.1 321.1,155.1 322.3,151.9 323.6,148.8 325.0,136.5 326.3,130.0 327.7,110.3 329.0,118.3 330.2,98.8 331.6,109.3 332.9,102.0 334.2,121.7 335.7,141.2 337.0,134.7 338.3,129.2 339.5,132.0 340.9,102.0 342.3,111.2 343.6,105.2 345.0,92.6 346.3,87.8 347.6,82.9 348.8,100.0 350.2,122.5 351.5,107.8 353.2,122.9 354.4,112.1 355.8,110.5 357.1,104.5 358.4,110.4 359.9,99.6 361.2,84.5 362.5,89.5 363.7,93.9 365.1,90.3 366.5,103.2 367.8,111.8 369.1,128.1 370.4,135.4 371.6,153.9 373.0,168.7 374.3,159.0 375.7,163.0 377.0,154.8 378.4,156.9 379.6,163.1 380.9,164.7 382.2,167.4 383.7,181.1 385.1,199.2 386.4,195.5 387.8,208.4 389.1,193.4 390.5,198.7 391.8,219.5 393.0,238.8 394.4,243.6 395.8,230.9 397.1,224.9 398.4,220.8 399.8,210.1 401.0,227.7 402.3,245.0 403.6,245.7 404.9,254.6 406.3,264.6 407.7,273.9 409.1,275.6 410.5,279.8 411.7,272.1 413.0,269.9 414.3,266.6 415.7,249.7 417.0,249.3 418.4,265.2 419.8,264.0 421.0,273.1 422.3,258.6 423.6,259.9 425.0,265.5 426.3,265.9 427.5,280.5 428.8,289.2 430.1,305.5 431.5,303.3 432.8,295.5 434.0,294.4 435.3,294.4 436.7,305.1 438.0,289.7 439.4,292.8 440.7,287.7 441.9,277.3 443.3,269.7 444.6,254.9 446.0,258.1 447.3,271.4 448.7,276.4 450.0,261.7 451.2,260.3 452.5,254.0 453.9,247.7 455.3,257.5 456.7,260.4 458.1,264.5 459.5,252.3 460.8,252.9 462.2,255.1 463.6,266.7 464.9,284.2 466.1,284.1 467.5,280.2 468.9,285.7 470.2,280.5 471.5,286.3 472.9,285.0 474.3,281.9 475.6,273.9 476.8,281.4 478.1,288.6 479.5,297.4 480.9,289.5 482.3,284.9 483.6,290.2 485.0,292.6 486.4,297.1 487.8,304.0 489.1,304.8 490.3,301.1 491.7,298.1 493.1,306.1 494.4,312.0 495.7,304.0 497.1,311.0 498.5,324.4 499.8,325.7 501.0,335.9 502.4,343.4 503.7,334.6 505.2,339.1 506.6,338.0 507.9,337.0 509.3,355.3 510.7,363.0 512.0,364.5 513.4,355.3 514.8,359.1 516.1,351.7 517.5,357.2 518.7,356.1 520.0,333.9 521.4,322.7 522.7,333.3 524.1,306.7 525.4,277.7 526.6,267.0 528.0,293.5 529.6,299.3 531.0,287.1 532.2,279.5 533.6,265.2 534.9,290.4 536.3,284.2 537.6,292.5 539.0,312.7 540.3,310.5 541.7,311.0 543.1,322.6 544.3,321.1 545.6,323.6 547.0,332.6 548.3,340.5 549.7,335.6 551.0,343.1 552.4,335.8 553.8,328.4 555.2,323.7 556.6,316.3 558.0,312.1 559.2,304.8 560.6,309.8 561.9,286.2 563.2,273.2 564.6,279.3 566.0,292.4 567.3,301.9 568.7,299.9 569.9,296.6 571.3,318.1 572.6,334.1 573.9,335.1 575.2,316.5 576.6,318.3 578.0,317.9 579.4,326.2 580.8,322.7 582.2,334.9 583.4,336.6 584.7,345.5 586.1,348.4 587.4,338.2 588.8,340.2 590.2,343.0 591.5,352.5 592.9,350.4 594.1,345.1 595.5,324.5 596.8,332.1 598.1,332.0 599.4,324.9 600.8,313.2 602.3,314.1 603.7,317.1 605.0,317.0 606.4,315.4 607.7,320.8 609.1,317.2 610.3,317.7 611.7,301.3 613.1,303.6 614.5,298.3 615.8,294.2 617.1,300.2 618.5,306.9 619.8,317.4 621.0,316.4 622.6,310.2 624.0,313.2 625.2,316.9 626.8,313.1 628.2,315.9 629.4,311.2 630.8,298.9 632.1,297.2 633.5,299.8 634.9,303.6 636.3,293.5 637.6,311.0 639.0,288.0 640.3,305.0 641.5,307.3 642.9,302.1 644.2,311.6 645.6,311.7 646.9,310.5 648.2,309.3 649.6,314.2 651.1,309.8 652.5,311.3 653.9,314.5 655.2,316.1 656.4,313.6 657.7,315.6 659.1,317.9 660.5,311.8 661.9,311.2 663.3,314.7 664.6,307.6 665.9,305.4 667.3,290.0 668.5,281.8 669.8,285.6 671.2,271.4 672.5,268.6 673.9,267.4 675.4,245.5 676.7,230.6 678.1,232.1 679.5,206.4 680.8,210.2 682.2,210.4 683.4,228.7 684.8,216.4 686.1,233.1 687.5,218.1 688.8,216.0 690.2,216.0 691.6,222.4 692.9,221.5 694.1,230.1 695.4,210.4 696.8,199.6 698.2,210.8 699.6,208.8 700.9,204.8 702.3,217.1 703.7,214.6 705.1,226.5 706.4,230.4 707.6,233.9 708.9,226.5 710.3,230.0 711.7,219.8 713.0,215.6 714.4,228.7 715.8,228.5 717.1,225.7 718.5,210.7 719.7,215.5 721.3,190.7 722.5,181.3 724.1,187.2 725.5,195.9 726.7,192.9 728.1,191.2 729.4,196.1 730.8,199.7 732.1,200.4 733.5,216.3 734.8,211.5 736.2,223.2 737.6,239.9 738.8,236.6 740.2,248.8 741.5,238.6 742.8,237.0 744.1,228.0 745.5,237.6 746.9,235.0 748.3,241.8 749.7,261.2 751.1,258.1 752.5,257.1 753.9,256.2 755.1,254.7 756.4,241.1 757.8,233.3 759.1,227.1 760.5,229.1 761.8,230.4 763.2,222.2 764.6,226.6 765.8,226.4 767.1,222.2 768.4,221.7 769.8,217.1 771.2,215.6 772.7,224.3 774.1,224.1 775.5,218.1 776.8,218.5 778.1,213.8 779.5,212.5 780.8,214.0 782.2,215.0 783.4,220.4 784.8,217.0 786.2,207.8 787.5,208.3 788.9,206.3 790.2,203.5 791.5,213.9 792.7,208.0 794.1,208.5 795.5,213.4 796.9,213.8 798.3,213.6 799.7,202.7 801.0,213.1 802.4,200.4 803.8,196.2 805.1,198.8 806.5,212.0 807.8,215.6 809.2,219.0 810.4,236.2 811.8,240.3 813.1,237.1 814.5,233.9 815.8,238.7 817.1,240.7 818.5,245.7 819.7,256.4 821.3,253.4 822.7,250.6 824.1,256.5 825.3,246.8 826.6,239.5 828.0,248.8 829.4,252.4 830.8,257.1 832.1,246.5 833.5,240.5 834.8,244.6 836.0,236.2 837.4,241.5 838.7,231.8 840.1,235.8 841.4,233.5 842.8,221.7 844.1,218.5 845.5,221.7 846.9,218.5 848.1,221.4 849.5,203.5 850.8,208.3 852.2,195.1 853.6,176.1 855.0,183.6 856.4,174.0 857.7,152.2 859.1,162.2 860.4,145.9 861.8,150.0 863.0,128.0 864.3,123.6 865.7,137.2 867.1,163.9 868.4,175.4 869.8,179.9 871.2,191.3 872.6,171.8 874.0,177.5 875.3,186.3 876.7,190.6 877.9,182.9 879.3,175.1 880.7,181.6 882.1,199.0 883.4,183.7 884.7,178.9 886.1,170.7 887.5,157.8 888.8,166.3 890.0,164.4 891.4,179.4 892.7,187.7 894.2,184.5 895.6,175.7 897.0,175.5 898.3,178.9 899.7,174.5 901.0,164.4 902.4,169.3 903.7,174.6 905.1,165.8 906.5,173.6 907.9,182.8 909.1,194.3 910.5,192.0 911.8,186.9 913.1,172.7 914.4,163.5 915.8,161.4 917.2,151.7 918.6,144.6 920.0,152.2 921.4,161.8 922.8,178.9 924.0,180.9 925.4,201.5 926.7,193.3 928.0,205.5 929.4,211.9 930.8,207.8 932.1,205.5 933.5,207.6 934.9,214.1 936.1,211.7 937.4,204.6 938.7,201.5 940.1,205.1 941.4,210.4 942.9,203.5 944.3,212.3 945.7,211.8 947.0,200.9 948.4,200.5 949.7,207.3 950.9,202.7 952.3,198.0 953.7,190.5" />
<text x="68.0" y="422" text-anchor="middle" font-size="12" fill="#6b7280">1990-01-01</text>
<text x="511.0" y="422" text-anchor="middle" font-size="12" fill="#6b7280">2008-03-31</text>
<text x="954.0" y="422" text-anchor="middle" font-size="12" fill="#6b7280">2026-06-30</text>
</svg>