<svg xmlns="http://www.w3.org/2000/svg" width="980" height="440" viewBox="0 0 980 440">
<rect width="100%" height="100%" fill="white" />
<text x="68" y="30" font-size="20" font-weight="700" fill="#111827">Fed Net Liquidity vs SPX Nasdaq</text>
<text x="68" y="50" font-size="12" fill="#6b7280">Indexed to 100 over common window</text>
<line x1="598" y1="22" x2="620" y2="22" stroke="#2563eb" stroke-width="3" /><text x="628" y="26" font-size="13" fill="#111827">Fed Net Liquidity</text>
<line x1="598" y1="42" x2="620" y2="42" stroke="#dc2626" stroke-width="3" /><text x="628" y="46" font-size="13" fill="#111827">SPX</text>
<line x1="598" y1="62" x2="620" y2="62" stroke="#059669" stroke-width="3" /><text x="628" y="66" font-size="13" fill="#111827">Nasdaq</text>
<line x1="68" y1="388.0" x2="954" y2="388.0" stroke="#e5e7eb" /><text x="58" y="392.0" text-anchor="end" font-size="12" fill="#6b7280">46.50</text>
<line x1="68" y1="304.5" x2="954" y2="304.5" stroke="#e5e7eb" /><text x="58" y="308.5" text-anchor="end" font-size="12" fill="#6b7280">184.25</text>
<line x1="68" y1="221.0" x2="954" y2="221.0" stroke="#e5e7eb" /><text x="58" y="225.0" text-anchor="end" font-size="12" fill="#6b7280">321.99</text>
<line x1="68" y1="137.5" x2="954" y2="137.5" stroke="#e5e7eb" /><text x="58" y="141.5" text-anchor="end" font-size="12" fill="#6b7280">459.74</text>
<line x1="68" y1="54.0" x2="954" y2="54.0" stroke="#e5e7eb" /><text x="58" y="58.0" text-anchor="end" font-size="12" fill="#6b7280">597.48</text>
<line x1="68" y1="388" x2="954" y2="388" stroke="#9ca3af" />
<line x1="68" y1="54" x2="68" y2="388" stroke="#9ca3af" />
<polyline fill="none" stroke="#2563eb" stroke-width="2.2" points="68.0,355.6 69.7,355.0 71.2,355.2 72.6,355.2 74.1,355.2 75.0,355.4 76.5,355.0 77.9,354.4 79.4,354.4 80.9,354.4 81.8,354.2 83.3,354.8 85.0,354.2 86.4,354.0 87.9,354.0 89.4,355.5 90.3,356.0 91.8,355.8 93.5,356.0 94.9,356.4 96.4,356.4 97.8,357.1 98.8,356.9 100.3,356.3 102.0,356.7 103.4,356.5 105.1,356.9 106.6,356.9 108.0,355.9 109.0,355.3 110.5,356.3 112.2,356.4 113.9,356.5 115.3,356.3 117.0,356.1 118.5,356.1 119.9,356.6 120.9,356.3 122.4,355.3 123.8,355.3 125.5,354.4 127.0,354.4 128.4,353.3 129.4,352.0 130.9,351.1 132.3,351.5 133.8,351.5 135.2,351.5 136.2,351.8 138.6,352.1 139.6,352.8 141.0,354.0 142.5,354.1 144.0,354.1 145.4,353.4 146.4,353.3 147.8,353.0 149.5,353.2 151.0,352.9 152.5,352.9 153.9,352.7 154.9,353.6 156.3,353.7 158.0,353.2 159.5,353.1 160.9,353.1 162.4,353.1 163.4,353.4 164.8,353.3 166.3,352.8 167.7,352.8 169.2,352.6 170.2,351.9 171.6,351.7 173.3,351.4 174.8,351.6 176.2,351.6 177.7,352.6 178.7,353.2 180.1,353.1 181.8,353.2 183.3,353.2 184.7,353.2 186.2,353.6 187.2,353.6 188.6,353.3 190.1,353.4 191.5,353.4 193.2,353.3 194.7,353.6 195.6,352.9 197.1,351.9 198.6,353.2 200.3,353.7 202.0,354.1 203.4,354.1 205.1,353.9 206.6,354.4 207.5,354.9 209.0,355.3 210.4,354.3 211.9,354.3 213.6,354.0 215.1,354.6 216.0,354.7 217.5,354.5 218.9,355.2 220.4,355.2 221.9,356.2 223.8,356.4 225.3,356.3 226.2,356.2 227.7,355.8 229.1,357.3 230.6,357.3 232.0,358.1 233.0,357.4 234.5,357.5 235.9,357.3 237.6,357.4 239.1,357.4 240.5,357.1 241.5,356.8 243.0,358.0 244.4,358.5 245.9,358.5 247.3,358.1 248.3,358.0 249.8,357.9 251.2,358.5 252.7,358.5 254.1,358.9 255.1,358.5 256.6,359.1 258.0,359.2 259.5,359.2 261.2,359.3 262.6,359.2 263.6,358.8 265.1,359.3 266.5,360.1 268.0,360.1 269.7,360.3 271.1,359.6 272.1,359.8 273.5,360.4 275.0,360.9 276.5,360.9 278.2,360.1 279.6,360.3 281.3,360.8 282.3,361.0 284.0,361.2 285.4,361.1 286.9,361.4 288.6,361.8 290.3,362.2 291.7,362.2 293.2,361.9 294.2,361.9 295.9,362.5 297.3,362.8 298.8,362.3 300.2,362.3 301.9,362.3 303.4,362.6 304.4,362.4 305.8,361.1 307.3,361.5 308.7,361.5 310.2,362.5 311.2,362.7 312.6,363.0 314.1,362.2 315.5,362.2 317.5,364.1 318.9,364.1 320.4,365.0 321.4,364.2 322.8,364.2 324.3,363.7 326.0,363.3 327.4,363.3 328.9,363.0 329.8,362.4 331.3,362.7 332.8,363.7 334.2,363.7 335.9,363.8 337.4,363.3 338.3,363.2 339.8,363.2 341.3,363.1 342.7,363.1 344.2,362.6 345.1,362.5 346.6,362.8 348.0,363.1 349.7,363.2 351.2,363.2 352.7,363.6 353.6,363.4 355.1,364.2 356.5,363.2 358.0,363.2 359.7,362.9 361.1,362.7 362.1,363.5 363.6,362.9 365.0,362.4 366.7,362.4 368.2,362.4 369.6,362.4 371.3,362.0 372.3,361.6 373.8,360.9 375.2,360.3 376.7,360.3 378.1,360.4 379.1,360.5 380.6,360.7 382.0,360.0 383.7,361.3 385.2,361.3 386.6,361.6 387.6,361.1 389.1,360.8 390.8,361.2 392.2,361.6 393.7,361.6 395.1,359.4 396.1,358.5 397.6,353.0 399.0,344.8 400.5,344.8 401.9,337.2 403.6,337.1 404.6,335.8 406.0,332.9 407.5,333.1 409.0,333.1 410.4,334.1 411.4,331.7 412.8,330.4 414.5,331.2 416.0,332.1 417.4,332.1 418.9,333.1 419.9,334.9 421.3,336.1 422.8,337.6 424.5,338.9 425.9,338.9 427.4,338.3 428.4,340.4 429.8,340.8 431.3,339.8 432.7,339.8 434.2,338.6 435.2,337.4 436.6,337.4 438.1,337.2 439.8,336.9 441.2,336.9 442.7,336.2 443.7,336.7 445.1,337.3 446.6,337.2 448.3,335.9 449.7,335.9 451.2,336.1 452.2,336.0 453.6,334.9 455.1,334.3 456.5,334.3 458.0,332.7 459.7,332.5 460.6,332.6 462.1,332.4 463.6,330.6 465.0,330.6 466.7,331.0 468.4,331.4 469.9,333.0 470.8,331.9 472.5,331.2 474.0,331.5 475.4,331.3 476.9,331.3 478.6,330.6 480.1,328.2 481.0,327.2 482.5,326.2 483.9,324.9 485.4,324.9 486.9,321.9 487.8,318.4 489.3,318.4 491.0,317.8 492.4,315.4 493.9,315.4 495.3,316.3 496.3,316.2 497.8,315.5 499.2,314.4 500.7,314.4 502.1,312.6 503.1,312.1 504.8,311.2 506.3,310.2 507.7,307.4 509.2,307.4 510.6,308.0 511.6,308.6 513.3,308.4 514.8,306.1 516.2,305.2 517.7,305.2 519.1,304.0 520.1,302.5 521.6,301.4 523.0,298.7 524.5,298.7 525.9,298.3 526.9,297.7 528.6,297.2 530.0,295.6 531.5,296.1 533.0,296.1 534.4,295.1 535.4,293.9 537.1,292.8 538.5,291.7 540.0,293.7 541.5,293.7 542.9,294.4 544.6,292.8 545.6,292.0 547.3,291.2 548.7,291.5 550.2,290.7 551.6,290.7 553.1,289.2 554.8,288.4 555.8,290.8 557.2,293.2 558.7,293.9 560.4,293.2 561.8,293.2 563.3,295.2 564.3,295.9 565.7,296.0 567.2,295.6 568.9,295.4 570.3,295.4 571.8,295.5 572.8,295.0 574.2,293.1 575.7,293.7 577.1,293.7 578.6,293.5 579.6,293.4 581.0,292.6 582.7,295.2 584.2,298.8 585.6,298.8 587.1,298.9 588.0,298.8 589.5,297.9 591.0,297.4 592.7,296.9 594.1,296.9 595.6,295.9 596.5,294.7 598.2,296.2 599.7,296.5 601.4,296.0 602.9,295.2 604.3,295.2 605.8,294.6 606.7,294.6 608.2,294.7 609.6,294.0 611.1,294.0 612.6,294.3 613.5,294.1 615.0,295.6 616.7,295.2 618.1,295.3 619.6,295.3 621.1,297.0 622.0,297.2 623.5,296.9 625.2,296.6 626.6,296.8 628.1,296.8 629.5,297.5 630.5,297.6 632.0,296.6 633.7,297.0 635.1,296.7 636.8,297.7 638.3,297.7 639.7,296.6 640.7,295.4 642.2,297.2 643.9,297.0 645.6,297.5 647.0,296.8 648.7,296.6 650.2,296.6 651.6,299.1 652.6,300.6 654.1,299.6 655.5,300.3 657.2,300.2 658.7,300.2 660.1,299.4 661.1,298.6 662.5,292.8 664.0,291.8 665.5,291.8 666.9,291.1 668.6,292.0 669.6,291.4 671.0,292.5 672.5,294.8 674.0,294.8 675.4,295.3 676.4,294.3 677.8,293.8 679.3,293.3 681.0,293.8 682.4,293.8 683.9,293.7 684.9,294.6 686.6,297.5 688.0,299.5 689.7,300.5 691.2,302.0 692.6,302.0 694.1,302.5 695.1,303.2 696.5,303.3 698.0,302.2 699.4,302.2 700.9,303.0 701.9,302.8 703.3,303.9 705.0,304.2 706.5,305.0 707.9,305.0 709.4,307.8 710.4,308.7 711.8,309.2 713.5,309.9 715.0,310.9 716.4,310.9 717.9,312.4 718.8,312.8 720.3,312.1 721.8,312.3 723.2,312.3 724.9,311.9 726.4,312.6 727.3,312.6 728.8,312.2 730.3,313.6 732.0,313.7 733.7,314.6 735.1,314.6 736.8,314.3 738.3,314.5 739.2,315.2 740.7,316.5 742.1,315.9 743.6,315.9 745.3,316.4 746.8,316.4 747.7,316.6 749.2,316.8 750.6,316.8 752.1,316.8 753.6,317.8 755.3,318.1 756.2,318.3 757.7,317.3 759.1,319.2 760.6,319.2 762.0,321.3 763.0,321.6 764.5,320.7 765.9,320.5 767.4,320.5 769.1,319.7 770.5,319.6 771.5,320.1 773.0,319.5 774.4,320.3 775.9,320.3 777.3,321.3 779.0,321.4 780.0,321.0 781.5,321.4 782.9,321.8 784.4,321.8 785.8,322.4 786.8,322.2 788.3,322.5 789.7,322.2 791.2,322.2 792.9,322.6 794.3,322.6 795.3,322.8 796.7,323.1 798.2,324.1 799.7,324.1 801.1,324.5 802.1,324.5 803.8,324.5 805.2,325.2 806.7,325.5 808.2,325.5 809.9,325.9 811.3,326.1 812.3,325.6 814.0,326.2 815.4,326.5 816.9,326.3 818.3,326.3 819.8,326.3 820.8,326.3 822.2,326.2 823.7,325.2 825.1,325.2 826.8,325.3 828.3,325.8 829.3,327.6 830.7,328.0 832.2,328.3 833.9,328.2 835.3,328.2 836.8,326.9 837.8,325.0 839.2,324.5 840.7,323.4 842.1,323.4 843.6,322.5 844.6,322.1 846.0,321.9 847.5,323.6 849.2,326.3 850.6,326.3 852.1,326.4 853.0,326.2 854.5,326.1 856.0,325.4 857.7,325.1 859.1,325.1 860.6,323.8 861.5,323.1 863.2,323.1 864.7,323.7 866.2,323.7 867.9,323.1 869.3,323.1 870.8,322.8 871.7,323.2 873.2,324.1 874.6,324.9 876.1,324.9 877.6,326.1 878.5,326.7 880.0,327.9 881.7,328.0 883.1,329.1 884.6,329.1 886.1,330.3 887.0,331.0 888.5,331.3 889.9,331.3 891.6,331.2 893.1,331.2 894.5,332.8 895.5,333.6 897.0,333.5 898.7,333.6 900.1,333.8 901.6,333.8 903.3,333.3 904.7,334.0 905.7,332.8 907.2,332.2 908.6,331.9 910.3,331.0 912.0,331.4 913.5,331.4 915.2,331.0 916.6,332.3 917.6,333.0 919.1,332.6 920.5,332.4 922.2,332.5 923.7,332.5 925.1,332.1 926.1,331.1 927.5,330.9 929.0,331.0 930.5,331.0 931.9,331.3 933.6,330.6 934.6,328.9 936.0,328.8 937.5,332.5 939.0,332.5 940.4,332.2 941.4,330.6 942.8,329.7 944.3,329.1 946.0,330.0 947.4,330.0 948.9,330.5 949.9,329.6 951.3,330.2 953.0,330.8" />
<polyline fill="none" stroke="#dc2626" stroke-width="2.2" points="68.0,355.6 69.7,355.6 71.2,354.0 72.6,353.7 74.1,353.6 75.0,353.4 76.5,353.7 77.9,353.4 79.4,353.3 80.9,353.2 81.8,353.5 83.3,353.5 85.0,353.2 86.4,354.8 87.9,354.4 89.4,354.2 90.3,353.6 91.8,353.8 93.2,354.4 94.7,354.4 96.2,354.1 97.1,354.8 98.6,355.9 100.0,353.7 101.5,353.2 102.9,352.7 104.6,352.6 105.6,352.9 107.1,351.3 108.5,351.1 110.0,350.6 111.7,350.7 113.4,351.0 114.8,350.7 115.8,350.5 117.5,350.6 119.0,349.9 120.4,350.4 121.9,350.0 123.3,348.9 124.3,348.3 126.0,347.8 127.5,347.4 128.9,347.9 130.4,347.9 131.8,347.6 132.8,348.5 134.2,347.8 135.7,348.2 137.2,348.2 138.9,348.5 140.3,347.6 141.3,347.3 142.7,347.2 144.2,346.9 145.7,346.9 147.1,347.0 148.1,346.4 149.8,345.7 151.2,345.9 152.7,345.8 154.1,345.8 155.6,345.7 156.6,346.2 158.3,346.1 159.7,345.5 161.2,344.7 162.6,344.6 164.1,344.8 165.1,344.7 166.5,345.8 168.0,344.9 169.4,345.4 170.9,345.6 171.9,344.7 173.6,345.1 175.0,344.1 176.5,343.7 177.9,344.1 179.4,343.1 180.4,342.6 181.8,342.5 183.3,342.2 184.7,342.0 186.2,341.9 187.2,341.4 188.6,341.5 190.1,342.1 191.5,341.1 193.2,340.3 194.7,340.0 195.6,339.6 197.1,339.6 198.6,338.8 200.3,338.7 202.0,337.8 203.4,336.7 205.1,336.0 206.6,334.4 207.5,333.2 209.0,334.7 210.4,338.7 211.9,339.3 213.6,337.7 215.1,335.9 216.0,338.5 217.5,337.1 218.9,336.8 220.4,337.7 221.9,339.4 223.6,341.6 224.5,341.0 226.0,339.2 227.4,338.0 228.9,340.1 230.3,339.7 231.3,339.3 232.8,337.5 234.2,337.6 235.7,337.5 237.4,338.5 238.8,336.9 239.8,335.9 241.3,335.8 242.7,336.3 244.2,337.5 245.6,337.4 247.3,335.8 248.3,335.3 249.8,335.2 251.2,334.0 252.7,334.8 254.1,333.9 255.1,334.4 256.6,334.1 258.0,333.5 259.5,332.5 261.2,332.5 262.6,333.1 263.6,332.3 265.1,331.5 266.5,332.3 268.0,331.8 269.4,332.9 270.4,336.3 271.8,336.2 273.3,339.5 274.8,338.7 276.2,337.1 277.2,335.9 278.6,337.3 280.1,339.7 281.8,336.9 283.3,338.2 284.9,340.0 286.4,342.7 287.4,346.4 289.1,344.4 290.8,343.1 292.2,341.2 293.7,340.6 295.4,340.0 296.8,339.9 298.3,337.5 299.3,338.0 300.7,336.9 302.4,336.0 303.9,335.5 305.3,335.6 306.8,335.8 307.8,334.7 309.2,333.7 310.7,335.2 312.1,333.4 313.6,332.6 314.6,332.2 316.0,332.3 317.7,331.7 319.2,331.7 320.6,332.9 322.1,335.0 323.0,333.6 324.5,334.7 326.2,335.6 327.7,334.6 329.1,332.8 330.6,332.7 331.5,331.0 333.0,331.7 334.5,329.7 336.2,329.7 337.6,329.4 339.1,330.0 340.0,328.8 341.5,330.9 342.9,332.9 344.4,331.7 345.9,331.7 346.8,334.0 348.3,331.7 350.0,330.2 351.4,329.5 352.9,329.4 354.4,329.8 355.3,330.6 356.8,332.1 358.2,331.9 359.7,329.7 361.1,329.3 362.1,328.9 363.6,328.5 365.0,327.3 366.5,326.9 367.9,326.0 368.9,326.4 370.6,325.5 372.1,326.2 373.5,325.5 375.0,324.0 376.4,323.1 378.1,323.2 379.8,322.4 380.8,321.9 382.3,320.4 384.0,320.1 385.4,321.6 386.9,320.9 388.3,319.4 389.3,318.6 391.0,319.8 392.5,330.2 393.9,325.8 395.4,332.9 396.8,347.3 397.8,349.6 399.2,340.2 400.7,344.8 402.2,339.4 403.9,334.0 405.3,334.7 406.3,334.3 407.7,332.1 409.2,333.9 410.7,333.3 412.1,330.9 413.1,330.8 414.8,328.3 416.2,326.3 417.7,324.1 419.1,325.9 420.6,326.1 421.6,329.3 423.0,325.8 424.7,325.2 426.2,323.0 427.6,322.1 429.1,322.6 430.1,321.7 431.5,319.5 433.0,318.6 434.4,318.3 435.9,317.1 436.9,314.9 438.3,316.4 440.0,319.7 441.5,318.4 442.9,320.4 444.4,319.4 445.4,319.5 446.8,316.6 448.3,315.4 449.7,316.7 451.2,318.0 452.2,321.7 453.6,314.8 455.1,313.0 456.5,311.9 458.0,312.9 459.7,311.6 460.6,309.4 462.1,310.2 463.6,309.3 465.0,309.7 466.7,308.5 468.4,308.6 469.9,306.4 470.8,307.4 472.5,305.2 474.0,306.8 475.4,305.6 476.9,303.2 478.6,302.6 480.1,304.2 481.0,306.1 482.5,307.3 483.9,303.6 485.4,301.7 486.9,302.4 487.8,301.4 489.3,300.1 491.0,297.9 492.4,297.1 493.9,296.8 495.3,295.2 496.3,295.4 497.8,294.8 499.2,298.8 500.7,297.0 502.1,295.0 503.1,294.8 504.8,294.0 506.3,293.8 507.7,294.2 509.2,293.5 510.6,292.3 511.6,290.5 513.3,290.0 514.8,290.3 516.2,290.3 517.7,289.1 519.1,289.5 520.1,288.1 521.6,287.4 523.0,289.1 524.5,286.6 525.9,285.4 526.9,285.2 528.6,287.4 530.0,287.0 531.5,289.2 533.0,290.5 534.4,292.0 535.4,289.4 536.8,288.0 538.3,285.2 539.8,284.1 541.2,282.9 542.2,280.5 543.6,281.9 545.1,280.8 546.6,280.7 548.3,284.3 549.7,283.6 550.7,280.1 552.1,281.3 553.6,280.5 555.3,277.8 556.7,277.7 558.2,281.3 559.2,281.5 560.9,289.2 562.3,291.2 563.8,283.6 565.2,285.6 566.7,289.1 567.7,290.6 569.4,289.6 570.8,290.2 572.3,292.6 573.7,293.1 575.2,287.3 576.2,285.0 577.6,285.3 579.1,286.8 580.5,289.2 582.2,287.3 583.7,292.1 584.7,296.9 586.1,296.4 587.6,302.5 589.0,298.1 590.5,301.4 591.4,296.1 593.1,297.5 594.6,300.1 596.1,306.7 597.8,307.6 599.2,305.8 600.9,305.5 602.4,304.9 603.3,304.6 604.8,300.7 606.2,300.0 607.7,298.0 609.2,296.6 610.1,292.6 611.6,292.5 613.0,296.6 614.5,301.1 616.2,303.3 617.7,297.5 618.6,304.3 620.1,307.7 621.5,308.8 623.0,306.7 624.4,311.9 625.4,312.7 626.9,310.3 628.3,305.6 629.8,304.8 631.2,306.2 632.2,300.9 633.7,302.2 635.1,299.9 636.8,298.3 638.3,302.4 639.7,300.9 640.7,304.9 642.2,305.8 643.9,305.0 645.6,306.2 647.0,301.5 648.7,302.7 650.2,300.2 651.6,300.1 652.6,296.7 654.1,298.3 655.5,296.4 657.2,300.9 658.7,301.5 660.1,299.3 661.1,304.7 662.5,301.8 664.0,302.5 665.5,301.5 666.9,297.1 668.6,297.5 669.6,296.7 671.0,296.9 672.5,299.0 674.0,297.2 675.4,296.7 676.4,297.1 677.8,294.9 679.3,297.3 681.0,295.5 682.4,292.5 683.9,290.9 684.9,288.8 686.6,290.6 688.0,289.2 689.7,288.8 691.2,287.0 692.6,284.6 694.1,284.6 695.1,283.8 696.5,286.2 698.0,287.2 699.4,288.0 700.9,289.1 701.9,288.9 703.3,286.0 705.0,287.6 706.5,287.2 707.9,287.8 709.4,290.9 710.4,292.3 711.8,293.2 713.3,289.8 714.7,289.9 716.2,294.4 717.2,297.3 718.6,291.5 720.1,289.6 721.5,286.3 723.0,284.9 724.7,284.8 725.6,283.5 727.1,283.7 728.6,280.2 730.0,278.5 731.7,278.3 733.4,279.2 734.9,278.6 735.8,278.0 737.5,276.4 739.0,274.8 740.4,276.2 741.9,273.1 743.4,271.1 744.3,271.6 746.0,269.2 747.5,269.0 748.9,268.8 750.4,266.7 751.9,267.5 752.8,265.0 754.3,264.4 756.0,267.5 757.4,267.1 758.9,270.3 760.3,271.5 761.3,268.9 762.8,269.9 764.2,266.4 765.7,264.7 767.1,262.9 768.1,263.0 769.8,263.8 771.3,261.6 772.7,259.6 774.2,257.7 775.9,258.2 777.3,258.1 779.0,255.2 780.0,254.0 781.5,256.1 782.9,259.4 784.4,259.2 785.8,266.4 786.8,261.8 788.3,256.1 789.7,253.8 791.2,253.7 792.9,256.5 794.3,258.2 795.3,253.7 796.7,251.2 798.2,250.9 799.7,251.3 801.1,251.7 802.1,248.2 803.5,247.5 805.0,248.7 806.5,247.7 807.9,251.2 808.9,243.0 810.3,244.4 811.8,245.3 813.2,242.3 814.9,241.5 816.4,241.4 817.4,241.4 818.8,246.7 820.5,241.8 822.2,246.7 823.7,245.3 825.4,244.3 827.1,240.4 828.5,240.9 830.0,243.1 831.0,242.1 832.4,239.6 834.1,239.5 835.6,244.2 837.0,249.3 838.5,254.0 839.5,253.3 840.9,252.6 842.4,251.2 843.8,253.5 845.3,270.0 846.3,261.3 847.7,263.6 849.4,257.8 850.9,255.3 852.3,254.3 853.8,247.4 854.7,244.1 856.2,247.5 857.9,245.4 859.4,243.7 860.8,241.8 862.3,241.9 864.0,242.2 864.9,237.9 866.4,234.8 868.1,234.8 869.5,235.3 871.0,234.0 872.5,231.6 873.4,236.0 874.9,233.1 876.3,229.4 877.8,231.0 879.3,230.2 880.2,229.6 881.9,229.0 883.4,225.9 884.8,225.6 886.3,223.9 887.8,223.8 888.7,222.2 890.2,221.7 891.6,223.5 893.1,221.7 894.5,217.6 895.5,218.6 897.0,222.1 898.4,218.3 899.9,225.1 901.3,222.5 903.0,219.4 904.0,217.8 905.5,216.9 906.9,222.1 908.4,216.6 910.1,217.0 911.8,215.6 913.2,214.7 914.2,215.7 915.9,216.5 917.4,214.9 918.8,217.4 920.3,215.7 922.0,218.5 923.4,218.7 924.4,217.5 925.8,218.9 927.3,220.5 928.8,222.2 930.2,226.1 931.2,232.2 932.6,226.1 934.3,219.1 935.8,213.4 937.3,212.2 938.7,209.0 939.7,207.4 941.1,204.3 942.6,201.2 944.1,203.8 945.7,199.0 947.2,196.7 948.2,202.9 949.6,202.6 951.1,201.9 952.8,203.7" />
<polyline fill="none" stroke="#059669" stroke-width="2.2" points="68.0,355.6 69.7,355.1 71.2,353.5 72.6,353.1 74.1,352.4 75.0,351.6 76.5,351.5 77.9,351.0 79.4,350.8 80.9,350.5 81.8,350.9 83.3,350.8 85.0,350.4 86.4,351.4 87.9,350.6 89.4,350.4 90.3,349.7 91.8,349.8 93.2,350.6 94.7,350.5 96.2,349.7 97.1,351.2 98.6,352.9 100.0,350.5 101.5,350.2 102.9,349.0 104.6,349.0 105.6,350.4 107.1,348.4 108.5,348.1 110.0,347.5 111.7,347.5 113.4,348.2 114.8,346.9 115.8,346.4 117.5,346.6 119.0,345.4 120.4,345.6 121.9,345.2 123.3,344.0 124.3,343.1 126.0,343.0 127.5,342.8 128.9,343.1 130.4,342.9 131.8,342.3 132.8,343.2 134.2,342.2 135.7,342.8 137.2,342.8 138.9,343.0 140.3,341.3 141.3,340.5 142.7,340.1 144.2,339.5 145.7,339.0 147.1,339.4 148.1,338.5 149.8,337.3 151.2,337.1 152.7,338.6 154.1,338.7 155.6,338.0 156.6,339.3 158.3,339.2 159.7,337.6 161.2,336.3 162.6,335.9 164.1,336.7 165.1,336.7 166.5,338.4 168.0,336.8 169.4,337.4 170.9,337.5 171.9,335.6 173.6,336.6 175.0,335.7 176.5,335.4 177.9,336.3 179.4,334.6 180.4,333.7 181.8,333.7 183.3,333.3 184.7,333.6 186.2,332.3 187.2,331.5 188.6,331.7 190.1,332.2 191.5,330.3 193.2,329.7 194.7,331.4 195.6,330.6 197.1,330.4 198.6,329.1 200.3,329.3 202.0,327.7 203.4,326.5 205.1,325.8 206.6,323.5 207.5,322.2 209.0,323.7 210.4,327.9 211.9,328.4 213.6,325.6 215.1,323.3 216.0,325.3 217.5,323.2 218.9,322.3 220.4,324.0 221.9,325.8 223.6,330.2 224.5,329.6 226.0,326.8 227.4,324.9 228.9,328.5 230.3,327.7 231.3,325.9 232.8,323.5 234.2,323.6 235.7,323.8 237.4,323.6 238.8,321.0 239.8,320.5 241.3,319.0 242.7,318.8 244.2,321.5 245.6,321.5 247.3,319.1 248.3,318.2 249.8,318.2 251.2,316.9 252.7,320.2 254.1,317.8 255.1,318.1 256.6,318.5 258.0,317.4 259.5,315.7 261.2,314.9 262.6,317.0 263.6,315.9 265.1,315.7 266.5,316.2 268.0,316.1 269.4,319.4 270.4,322.3 271.8,322.5 273.3,327.2 274.8,326.5 276.2,324.4 277.2,323.5 278.6,325.3 280.1,328.9 281.8,324.9 283.3,326.6 284.9,328.2 286.4,331.6 287.4,336.9 289.1,333.8 290.8,331.8 292.2,328.7 293.7,328.1 295.4,328.2 296.8,328.2 298.3,324.2 299.3,324.8 300.7,323.2 302.4,322.8 303.9,321.6 305.3,321.4 306.8,321.6 307.8,319.9 309.2,318.1 310.7,320.5 312.1,317.9 313.6,316.6 314.6,316.2 316.0,316.1 317.7,314.6 319.2,315.4 320.6,316.5 322.1,320.5 323.0,318.3 324.5,320.7 326.2,321.5 327.7,321.4 329.1,318.3 330.6,318.0 331.5,315.7 333.0,316.5 334.5,313.9 336.2,313.5 337.6,313.3 339.1,313.5 340.0,311.9 341.5,314.7 342.9,317.8 344.4,315.8 345.9,316.0 346.8,319.2 348.3,316.4 350.0,314.6 351.4,313.9 352.9,313.7 354.4,314.6 355.3,316.8 356.8,317.6 358.2,317.3 359.7,314.2 361.1,314.0 362.1,313.0 363.6,312.4 365.0,310.9 366.5,310.0 367.9,309.2 368.9,309.5 370.6,307.7 372.1,308.9 373.5,307.9 375.0,305.7 376.4,304.2 378.1,304.2 379.8,302.6 380.8,301.3 382.3,299.1 384.0,298.5 385.4,300.1 386.9,297.7 388.3,295.7 389.3,294.4 391.0,296.3 392.5,309.0 393.9,303.3 395.4,311.7 396.8,329.8 397.8,330.1 399.2,318.6 400.7,324.1 402.2,317.5 403.9,309.6 405.3,309.0 406.3,308.1 407.7,304.9 409.2,305.4 410.7,303.5 412.1,300.6 413.1,299.5 414.8,297.4 416.2,295.8 417.7,290.8 419.1,292.3 420.6,290.3 421.6,294.1 423.0,288.4 424.7,284.2 426.2,284.1 427.6,282.5 429.1,284.3 430.1,281.7 431.5,277.1 433.0,278.3 434.4,275.9 435.9,273.7 436.9,269.8 438.3,272.8 440.0,279.5 441.5,277.9 442.9,278.9 444.4,277.0 445.4,277.6 446.8,273.2 448.3,268.9 449.7,272.0 451.2,274.0 452.2,279.6 453.6,267.3 455.1,268.7 456.5,267.2 458.0,267.5 459.7,263.5 460.6,260.2 462.1,260.9 463.6,257.7 465.0,255.9 466.7,255.3 468.4,255.7 469.9,253.0 470.8,253.5 472.5,246.7 474.0,249.2 475.4,245.8 476.9,240.8 478.6,240.3 480.1,246.8 481.0,251.1 482.5,256.9 483.9,252.6 485.4,247.6 486.9,248.7 487.8,251.7 489.3,247.4 491.0,243.1 492.4,242.7 493.9,243.6 495.3,239.2 496.3,241.4 497.8,245.5 499.2,253.1 500.7,249.7 502.1,245.2 503.1,244.1 504.8,243.3 506.3,240.7 507.7,240.4 509.2,237.8 510.6,234.7 511.6,232.9 513.3,232.2 514.8,234.1 516.2,233.0 517.7,232.7 519.1,232.4 520.1,230.5 521.6,230.7 523.0,234.4 524.5,228.2 525.9,225.1 526.9,223.9 528.6,227.0 530.0,226.1 531.5,229.7 533.0,234.1 534.4,237.7 535.4,233.7 536.8,230.6 538.3,226.9 539.8,225.5 541.2,221.0 542.2,216.3 543.6,219.6 545.1,216.9 546.6,218.7 548.3,221.7 549.7,225.6 550.7,220.5 552.1,226.2 553.6,221.9 555.3,218.8 556.7,220.6 558.2,229.1 559.2,229.8 560.9,243.8 562.3,249.0 563.8,235.7 565.2,238.5 566.7,243.6 567.7,246.6 569.4,244.8 570.8,246.7 572.3,250.3 573.7,254.1 575.2,243.0 576.2,238.8 577.6,238.2 579.1,242.3 580.5,248.8 582.2,245.7 583.7,253.4 584.7,261.8 586.1,262.0 587.6,273.9 589.0,266.2 590.5,271.8 591.4,264.3 593.1,265.8 594.6,269.1 596.1,277.3 597.8,277.8 599.2,276.2 600.9,274.5 602.4,273.8 603.3,272.8 604.8,265.2 606.2,265.6 607.7,261.6 609.2,257.9 610.1,252.9 611.6,253.9 613.0,260.6 614.5,267.4 616.2,271.7 617.7,262.6 618.6,272.9 620.1,277.7 621.5,277.8 623.0,276.3 624.4,284.2 625.4,287.0 626.9,283.3 628.3,278.9 629.8,279.9 631.2,283.9 632.2,274.4 633.7,276.7 635.1,274.9 636.8,272.6 638.3,278.3 639.7,276.7 640.7,282.2 642.2,285.1 643.9,285.0 645.6,287.2 647.0,279.3 648.7,279.0 650.2,274.3 651.6,273.6 652.6,265.9 654.1,268.6 655.5,265.1 657.2,272.1 658.7,272.8 660.1,270.0 661.1,276.8 662.5,269.5 664.0,270.1 665.5,269.5 666.9,263.6 668.6,264.9 669.6,264.4 671.0,265.2 672.5,267.8 674.0,265.0 675.4,262.8 676.4,262.4 677.8,257.4 679.3,259.9 681.0,254.3 682.4,250.0 683.9,247.7 684.9,244.8 686.6,247.3 688.0,246.1 689.7,245.0 691.2,242.0 692.6,236.5 694.1,240.2 695.1,237.0 696.5,241.4 698.0,244.4 699.4,245.6 700.9,247.2 701.9,246.1 703.3,240.5 705.0,244.1 706.5,243.3 707.9,245.0 709.4,250.1 710.4,250.7 711.8,250.7 713.3,245.2 714.7,246.8 716.2,253.2 717.2,257.9 718.6,249.8 720.1,245.3 721.5,239.8 723.0,237.4 724.7,237.9 725.6,237.1 727.1,236.7 728.6,231.8 730.0,228.4 731.7,227.5 733.4,231.4 734.9,230.4 735.8,228.8 737.5,224.5 739.0,222.0 740.4,226.4 741.9,220.8 743.4,216.6 744.3,218.7 746.0,215.9 747.5,214.8 748.9,215.5 750.4,212.6 751.9,214.6 752.8,210.5 754.3,211.2 756.0,215.3 757.4,213.8 758.9,217.6 760.3,222.8 761.3,216.8 762.8,217.9 764.2,212.1 765.7,209.5 767.1,206.0 768.1,204.4 769.8,206.7 771.3,201.2 772.7,195.8 774.2,192.6 775.9,194.4 777.3,192.4 779.0,185.8 780.0,185.9 781.5,192.5 782.9,199.1 784.4,201.5 785.8,213.4 786.8,206.6 788.3,195.9 789.7,191.9 791.2,193.9 792.9,201.7 794.3,204.8 795.3,194.8 796.7,190.7 798.2,189.8 799.7,192.0 801.1,191.8 802.1,186.6 803.5,186.2 805.0,187.4 806.5,181.9 807.9,188.6 808.9,174.8 810.3,177.0 811.8,178.8 813.2,176.2 814.9,172.3 816.4,169.1 817.4,166.8 818.8,173.7 820.5,165.6 822.2,174.8 823.7,172.4 825.4,172.0 827.1,165.7 828.5,169.2 830.0,173.4 831.0,171.8 832.4,166.5 834.1,166.3 835.6,177.4 837.0,187.3 838.5,197.5 839.5,193.9 840.9,194.7 842.4,192.1 843.8,197.8 845.3,220.9 846.3,206.8 847.7,212.3 849.4,201.3 850.9,197.8 852.3,194.8 853.8,182.0 854.7,175.7 856.2,179.3 857.9,176.2 859.4,172.6 860.8,169.4 862.3,169.6 864.0,170.5 864.9,162.4 866.4,158.3 868.1,157.9 869.5,156.7 871.0,154.7 872.5,151.1 873.4,157.7 874.9,150.3 876.3,144.4 877.8,149.4 879.3,147.7 880.2,147.6 881.9,144.5 883.4,140.3 884.8,137.5 886.3,133.6 887.8,133.4 888.7,131.0 890.2,128.0 891.6,132.4 893.1,128.9 894.5,120.3 895.5,119.2 897.0,127.6 898.4,123.2 899.9,135.4 901.3,129.9 903.0,124.8 904.0,121.0 905.5,120.8 906.9,132.1 908.4,121.2 910.1,123.0 911.8,121.4 913.2,119.1 914.2,121.8 915.9,122.0 917.4,119.7 918.8,129.5 920.3,127.0 922.0,133.6 923.4,132.9 924.4,132.4 925.8,131.4 927.3,131.8 928.8,134.8 930.2,141.5 931.2,154.0 932.6,142.3 934.3,130.5 935.8,115.6 937.3,112.5 938.7,104.7 939.7,101.8 941.1,93.2 942.6,85.7 944.1,92.3 945.7,82.5 947.2,77.1 948.2,94.4 949.6,93.1 951.1,90.5 952.8,97.3" />
<text x="68.0" y="422" text-anchor="middle" font-size="12" fill="#6b7280">2016-06-30</text>
<text x="510.9" y="422" text-anchor="middle" font-size="12" fill="#6b7280">2021-06-29</text>
<text x="954.0" y="422" text-anchor="middle" font-size="12" fill="#6b7280">2026-06-29</text>
</svg>