<svg xmlns="http://www.w3.org/2000/svg" width="980" height="440" viewBox="0 0 980 440">
<rect width="100%" height="100%" fill="white" />
<text x="68" y="30" font-size="20" font-weight="700" fill="#111827">HY Spread</text>
<text x="68" y="50" font-size="12" fill="#6b7280">Raw value</text>
<line x1="598" y1="22" x2="620" y2="22" stroke="#2563eb" stroke-width="3" /><text x="628" y="26" font-size="13" fill="#111827">HY OAS / High Yield Spread</text>
<line x1="68" y1="388.0" x2="954" y2="388.0" stroke="#e5e7eb" /><text x="58" y="392.0" text-anchor="end" font-size="12" fill="#6b7280">2.43</text>
<line x1="68" y1="304.5" x2="954" y2="304.5" stroke="#e5e7eb" /><text x="58" y="308.5" text-anchor="end" font-size="12" fill="#6b7280">3.01</text>
<line x1="68" y1="221.0" x2="954" y2="221.0" stroke="#e5e7eb" /><text x="58" y="225.0" text-anchor="end" font-size="12" fill="#6b7280">3.60</text>
<line x1="68" y1="137.5" x2="954" y2="137.5" stroke="#e5e7eb" /><text x="58" y="141.5" text-anchor="end" font-size="12" fill="#6b7280">4.19</text>
<line x1="68" y1="54.0" x2="954" y2="54.0" stroke="#e5e7eb" /><text x="58" y="58.0" text-anchor="end" font-size="12" fill="#6b7280">4.77</text>
<line x1="68" y1="388" x2="954" y2="388" stroke="#9ca3af" />
<line x1="68" y1="54" x2="68" y2="388" stroke="#9ca3af" />
<polyline fill="none" stroke="#2563eb" stroke-width="2.2" points="68.0,156.9 71.2,165.4 72.9,149.7 76.1,145.5 77.7,171.1 79.4,178.2 82.6,178.2 84.2,178.2 87.5,189.6 89.1,176.8 90.7,189.6 94.0,189.6 95.6,166.8 98.8,168.3 100.5,172.5 102.1,188.2 105.3,185.4 106.9,171.1 110.2,168.3 111.8,175.4 113.4,178.2 116.7,182.5 118.3,185.4 121.5,191.1 123.2,183.9 124.8,185.4 128.0,186.8 129.7,195.3 132.9,189.6 134.5,196.8 136.2,174.0 139.4,158.3 141.0,151.2 142.6,159.7 145.1,126.9 146.7,109.8 149.9,115.5 151.6,128.3 153.2,121.2 156.4,128.3 158.1,111.2 161.3,91.3 162.9,111.2 164.6,88.4 167.8,104.1 169.4,142.6 172.7,164.0 174.3,152.6 175.9,159.7 179.2,175.4 180.8,161.1 184.0,175.4 185.6,178.2 187.3,185.4 190.5,178.2 192.1,186.8 195.4,192.5 197.0,193.9 198.6,199.6 201.9,198.2 203.5,239.5 206.7,233.8 208.4,245.2 210.0,250.9 214.0,258.1 215.7,258.1 218.9,229.6 220.5,208.2 223.8,216.7 225.4,235.3 227.0,226.7 230.3,223.9 231.9,223.9 235.1,236.7 236.8,243.8 238.4,250.9 241.6,246.7 243.3,226.7 246.5,235.3 248.1,245.2 249.7,259.5 253.0,255.2 254.6,256.6 257.9,258.1 259.5,258.1 261.1,273.7 264.3,269.5 266.0,265.2 269.2,269.5 270.8,268.0 272.5,269.5 275.7,278.0 277.3,285.1 280.6,288.0 282.2,286.6 283.8,295.1 287.1,285.1 288.7,289.4 291.9,289.4 293.6,273.7 295.2,280.9 298.4,286.6 300.0,283.7 303.3,266.6 304.9,246.7 306.5,253.8 309.8,278.0 311.4,272.3 314.7,289.4 316.3,276.6 317.9,295.1 321.1,298.0 322.8,286.6 326.0,286.6 327.6,288.0 329.3,293.7 332.5,296.5 334.1,292.3 337.4,289.4 339.0,285.1 340.6,278.0 343.9,275.2 345.5,278.0 348.7,285.1 350.4,293.7 352.0,265.2 355.2,272.3 356.8,273.7 360.1,279.4 361.7,280.9 363.3,280.9 365.8,276.6 367.4,270.9 369.0,268.0 372.3,276.6 373.9,280.9 377.1,288.0 378.7,293.7 380.4,293.7 383.6,303.7 385.2,295.1 388.5,288.0 390.1,270.9 391.7,203.9 395.0,211.0 396.6,238.1 399.8,232.4 401.5,241.0 403.1,265.2 406.3,270.9 408.0,276.6 411.2,285.1 412.8,279.4 414.4,288.0 416.9,282.3 418.5,256.6 420.1,250.9 423.4,241.0 425.0,250.9 428.2,260.9 429.9,276.6 431.5,285.1 434.7,276.6 436.4,286.6 439.6,302.2 441.2,298.0 442.8,322.2 446.1,307.9 447.7,307.9 451.0,310.8 452.6,320.8 454.2,323.6 457.5,317.9 459.1,316.5 462.3,332.2 463.9,335.0 465.6,330.8 468.8,326.5 470.4,345.0 473.7,359.3 475.3,357.8 476.9,346.4 480.2,350.7 481.8,362.1 485.0,357.8 486.7,350.7 488.3,346.4 490.7,352.1 492.3,355.0 494.0,353.6 497.2,353.6 498.8,355.0 502.1,350.7 503.7,345.0 505.3,326.5 508.6,326.5 511.0,329.3 514.2,317.9 516.7,333.6 519.9,336.5 521.5,332.2 524.8,327.9 526.4,346.4 528.0,357.8 531.3,362.1 532.9,362.1 536.2,355.0 537.8,352.1 539.4,352.1 542.6,347.9 544.3,355.0 547.5,355.0 549.1,356.4 550.8,360.7 554.0,360.7 555.6,355.0 558.9,337.9 560.5,333.6 562.1,325.1 565.4,307.9 567.0,307.9 570.2,283.7 571.9,278.0 573.5,270.9 576.7,273.7 578.3,282.3 581.6,299.4 583.2,279.4 584.8,239.5 588.1,235.3 589.7,162.6 592.9,77.0 594.6,111.2 596.2,126.9 599.4,151.2 601.1,161.1 605.1,165.4 606.7,202.5 610.0,202.5 611.6,172.5 613.2,221.0 616.5,212.4 618.1,233.8 621.3,285.1 623.0,292.3 624.6,283.7 627.8,278.0 629.5,260.9 632.7,249.5 634.3,273.7 635.9,262.3 638.4,268.0 640.0,273.7 641.6,293.7 644.9,289.4 646.5,282.3 649.7,292.3 651.4,283.7 653.0,288.0 656.2,298.0 657.9,300.8 661.1,312.2 662.7,323.6 664.3,335.0 667.6,317.9 669.2,317.9 672.5,313.7 674.1,306.5 675.7,316.5 679.0,320.8 680.6,332.2 683.8,332.2 685.4,322.2 687.1,288.0 690.3,309.4 691.9,313.7 695.2,315.1 696.8,320.8 698.4,323.6 701.7,320.8 703.3,313.7 706.5,335.0 708.2,337.9 709.8,332.2 712.2,329.3 713.8,323.6 715.5,330.8 718.7,325.1 720.3,337.9 723.6,342.2 725.2,336.5 726.8,346.4 730.1,347.9 731.7,340.7 734.9,343.6 736.6,333.6 738.2,335.0 741.4,332.2 743.0,313.7 746.3,280.9 747.9,313.7 749.5,300.8 752.8,310.8 754.4,312.2 757.7,335.0 759.3,340.7 760.9,315.1 764.1,288.0 765.8,288.0 769.0,303.7 770.6,303.7 772.3,296.5 775.5,278.0 777.1,282.3 780.4,285.1 782.0,306.5 783.6,313.7 786.0,315.1 787.7,322.2 789.3,327.9 792.5,322.2 794.2,323.6 797.4,319.4 799.0,307.9 800.7,320.8 803.9,330.8 806.3,326.5 809.6,329.3 812.0,330.8 815.3,336.5 816.9,340.7 820.1,343.6 821.7,340.7 823.4,356.4 826.6,345.0 828.2,357.8 831.5,350.7 833.1,346.4 834.7,335.0 837.2,333.6 838.8,326.5 840.4,325.1 843.7,326.5 845.3,317.9 848.5,315.1 850.1,326.5 851.8,326.5 855.0,310.8 856.6,309.4 858.3,289.4 860.7,295.1 862.3,306.5 865.6,279.4 867.2,293.7 868.8,266.6 872.1,275.2 873.7,268.0 876.9,279.4 878.5,282.3 880.2,246.7 883.4,266.6 885.0,282.3 888.3,299.4 889.9,315.1 891.5,315.1 894.8,329.3 896.4,326.5 899.6,325.1 901.3,329.3 902.9,326.5 906.1,327.9 907.8,330.8 911.0,337.9 912.6,342.2 914.2,333.6 917.5,332.2 919.1,340.7 922.4,330.8 924.0,335.0 925.6,343.6 928.8,346.4 930.5,346.4 932.9,343.6 934.5,347.9 936.2,343.6 939.4,342.2 941.0,335.0 942.6,347.9 945.9,347.9 947.5,355.0 950.8,356.4 952.4,340.7 954.0,330.8" />
<text x="68.0" y="422" text-anchor="middle" font-size="12" fill="#6b7280">2023-06-30</text>
<text x="511.0" y="422" text-anchor="middle" font-size="12" fill="#6b7280">2024-12-27</text>
<text x="954.0" y="422" text-anchor="middle" font-size="12" fill="#6b7280">2026-06-26</text>
</svg>