<svg xmlns="http://www.w3.org/2000/svg" width="980" height="440" viewBox="0 0 980 440">
<rect width="100%" height="100%" fill="white" />
<text x="68" y="30" font-size="20" font-weight="700" fill="#111827">MOVE</text>
<text x="68" y="50" font-size="12" fill="#6b7280">Raw value</text>
<line x1="598" y1="22" x2="620" y2="22" stroke="#2563eb" stroke-width="3" /><text x="628" y="26" font-size="13" fill="#111827">MOVE Index</text>
<line x1="68" y1="388.0" x2="954" y2="388.0" stroke="#e5e7eb" /><text x="58" y="392.0" text-anchor="end" font-size="12" fill="#6b7280">18.38</text>
<line x1="68" y1="304.5" x2="954" y2="304.5" stroke="#e5e7eb" /><text x="58" y="308.5" text-anchor="end" font-size="12" fill="#6b7280">84.50</text>
<line x1="68" y1="221.0" x2="954" y2="221.0" stroke="#e5e7eb" /><text x="58" y="225.0" text-anchor="end" font-size="12" fill="#6b7280">150.61</text>
<line x1="68" y1="137.5" x2="954" y2="137.5" stroke="#e5e7eb" /><text x="58" y="141.5" text-anchor="end" font-size="12" fill="#6b7280">216.72</text>
<line x1="68" y1="54.0" x2="954" y2="54.0" stroke="#e5e7eb" /><text x="58" y="58.0" text-anchor="end" font-size="12" fill="#6b7280">282.84</text>
<line x1="68" y1="388" x2="954" y2="388" stroke="#9ca3af" />
<line x1="68" y1="54" x2="68" y2="388" stroke="#9ca3af" />
<polyline fill="none" stroke="#2563eb" stroke-width="2.2" points="68.0,259.4 69.3,258.6 70.8,255.9 71.9,253.0 73.8,262.8 75.2,266.2 76.5,273.4 78.1,265.0 79.4,282.7 80.5,271.8 81.9,265.9 83.2,277.5 84.6,290.2 86.0,304.2 87.3,287.6 88.7,282.8 90.3,278.2 91.7,284.2 93.3,272.4 94.6,232.6 95.9,234.6 97.4,243.5 98.8,259.5 99.9,269.3 101.3,256.3 102.6,256.8 103.9,264.1 105.5,265.0 106.8,276.4 108.3,265.6 109.6,267.1 111.1,273.8 112.6,281.5 113.9,264.4 115.0,289.6 116.5,297.4 117.8,285.1 119.1,289.1 120.5,281.0 121.9,261.7 123.3,255.8 124.4,266.6 125.7,278.9 127.2,286.5 128.6,280.2 130.0,292.0 131.4,292.9 132.7,286.3 134.0,291.9 135.2,282.4 136.6,289.2 137.9,287.2 139.3,289.6 140.7,294.9 142.0,286.8 143.5,301.6 144.9,298.1 146.3,307.4 147.7,306.9 148.8,294.5 150.3,314.9 151.6,305.4 152.9,305.0 154.4,283.1 155.7,295.0 157.1,298.1 158.5,312.5 159.6,304.9 160.9,306.4 162.3,308.6 163.7,311.3 165.1,310.0 166.4,317.1 167.8,306.5 169.0,315.8 170.3,313.2 171.6,318.6 173.0,316.5 174.4,311.6 175.7,312.5 176.9,313.4 178.3,312.2 179.6,305.9 181.1,311.7 182.5,318.4 183.8,321.6 185.3,322.5 186.7,329.8 188.2,320.0 189.5,325.3 190.9,334.9 192.3,327.5 193.4,329.7 194.7,322.9 196.1,323.6 197.5,326.8 198.8,329.0 200.2,321.4 201.6,330.0 202.7,328.6 204.1,329.0 205.5,325.3 206.9,330.8 208.2,336.4 209.5,338.0 210.7,339.6 212.1,340.6 213.4,331.0 214.9,334.6 216.2,339.1 217.5,334.3 218.9,330.9 220.3,322.7 221.4,330.1 222.9,326.8 224.7,334.3 226.1,335.4 227.2,335.3 228.6,338.2 230.0,323.1 231.3,327.6 232.6,330.6 234.1,336.3 235.4,335.7 236.5,345.0 237.9,339.9 239.3,321.8 240.6,321.0 242.0,318.4 243.4,323.1 244.7,287.6 245.9,264.2 247.2,270.5 248.7,271.7 250.0,277.0 251.3,280.4 252.8,306.6 254.1,286.1 255.2,269.7 257.0,250.9 258.1,234.5 259.4,215.8 261.0,236.8 262.3,240.6 263.7,217.1 265.1,226.7 266.5,230.7 267.9,215.1 269.3,208.3 270.6,243.4 271.8,229.2 273.1,265.7 274.4,250.6 275.9,251.3 277.2,222.3 278.5,238.6 280.0,255.9 281.1,245.8 282.4,244.9 283.8,269.4 285.1,274.6 286.5,254.9 287.9,211.5 289.0,152.6 290.4,149.4 291.8,146.8 293.1,192.5 294.5,150.8 295.9,140.1 297.2,165.4 298.8,208.6 300.2,238.8 301.5,204.8 302.7,210.8 304.1,200.8 305.4,226.4 306.8,261.8 308.1,261.6 309.6,265.0 310.9,249.8 312.0,256.8 313.5,202.3 314.8,194.4 316.1,203.0 317.6,238.8 318.9,229.5 320.2,233.0 321.4,228.5 322.7,252.8 324.1,262.9 325.5,269.9 326.8,275.8 328.2,273.7 329.6,267.6 331.0,294.4 332.5,302.5 333.6,292.5 334.9,278.6 336.5,289.6 337.9,299.7 339.2,296.4 340.7,301.1 342.0,311.6 343.3,314.1 344.7,301.2 346.1,299.8 347.2,303.6 348.6,263.8 349.9,287.3 351.4,278.4 352.7,285.4 354.0,304.9 355.5,307.4 356.6,311.6 357.9,305.1 359.3,300.7 360.6,280.2 362.0,281.9 363.4,303.0 364.5,310.1 365.9,294.5 367.3,307.5 368.7,286.7 370.1,273.2 371.5,253.1 372.9,270.6 374.3,284.5 375.7,293.1 377.0,283.2 378.2,292.1 379.6,291.7 380.9,280.2 382.3,298.1 383.6,303.6 385.0,308.5 386.4,307.1 387.5,310.4 388.9,315.4 390.3,300.2 391.6,301.1 393.0,299.9 394.4,304.1 395.7,262.4 396.8,284.5 398.2,286.4 399.6,288.3 401.0,281.0 402.4,274.4 403.7,282.3 405.1,277.0 406.5,275.4 407.9,292.5 409.1,298.3 410.5,296.2 411.9,311.2 413.4,316.0 414.7,306.1 416.2,311.4 417.5,316.4 418.8,293.4 420.2,315.7 421.6,319.1 422.7,330.3 424.1,338.5 425.4,318.1 426.8,300.5 428.2,304.2 429.5,320.8 430.9,331.9 432.1,323.2 433.4,318.1 434.7,326.8 436.2,324.7 437.5,335.7 438.9,336.2 440.3,331.6 441.4,319.0 443.3,338.8 444.9,345.9 446.5,344.5 447.9,339.6 449.3,336.4 450.8,327.6 452.1,335.6 453.5,335.8 455.0,334.8 457.1,338.8 458.6,344.8 459.9,348.3 461.3,348.7 462.9,325.1 464.3,304.2 465.7,301.5 467.1,273.2 468.5,307.8 469.9,306.0 471.2,317.6 472.3,285.2 474.2,282.6 475.5,316.1 476.6,307.0 478.1,319.7 479.4,333.3 480.9,333.0 482.2,325.6 483.7,319.3 485.2,326.8 486.6,318.1 488.0,332.7 489.9,332.5 491.3,338.7 492.5,337.7 493.8,334.4 495.1,327.5 496.5,336.4 498.0,336.8 499.5,340.9 501.0,340.0 502.3,341.2 503.9,344.0 505.3,341.0 506.6,343.8 508.0,339.6 509.3,333.3 510.4,334.8 511.9,328.4 513.2,336.6 514.5,329.1 516.0,313.7 517.3,324.6 518.8,323.8 520.3,328.1 521.8,321.3 523.4,322.8 524.7,303.5 526.1,301.8 527.6,295.5 529.0,296.9 530.4,303.9 531.7,305.5 533.1,313.0 534.5,318.4 535.6,311.6 536.9,306.1 538.4,306.8 539.7,297.8 541.0,304.9 542.5,296.9 543.8,319.3 544.9,315.5 546.3,310.2 547.6,295.0 549.1,303.7 550.4,315.7 551.7,313.3 553.2,321.5 554.3,318.9 556.1,319.9 557.6,321.5 558.9,312.5 560.3,326.3 561.8,321.5 563.3,316.3 564.7,298.5 566.1,303.7 567.2,312.7 568.6,319.8 570.0,324.3 571.3,326.0 572.7,326.4 574.0,330.2 575.1,324.7 576.6,325.9 578.3,313.6 579.5,317.3 580.9,316.8 582.2,327.0 583.6,331.2 584.9,327.1 586.3,331.1 587.7,323.8 588.8,334.7 590.6,331.4 592.2,323.8 593.7,313.3 595.2,301.8 596.5,315.4 597.9,321.8 599.4,319.2 600.8,313.9 602.1,325.2 603.6,324.4 605.1,327.1 606.5,332.7 607.9,329.4 609.3,319.2 610.7,336.2 611.8,340.9 613.2,343.0 615.0,345.1 616.1,346.6 617.6,340.8 618.9,351.9 620.2,349.6 621.6,349.8 622.9,349.5 624.4,346.0 625.8,346.7 626.9,341.8 628.6,342.9 629.8,353.3 631.1,350.9 632.5,352.1 633.9,354.3 635.3,350.9 636.8,349.1 638.3,343.8 639.7,325.5 641.3,329.6 642.6,333.4 643.9,340.8 645.4,341.3 646.7,350.2 648.1,347.6 649.5,350.2 650.6,342.9 652.1,336.0 653.4,344.2 654.8,346.2 656.2,354.1 657.5,352.5 658.8,347.1 660.0,349.1 661.4,348.8 662.7,348.9 664.1,347.8 665.5,349.3 666.8,333.2 668.4,343.1 669.8,347.1 671.4,340.8 672.8,324.9 674.2,339.7 675.7,342.8 677.0,351.3 678.5,355.0 679.9,353.6 681.2,356.0 682.6,344.7 683.7,349.5 685.1,348.8 686.5,342.1 687.8,341.8 689.2,313.2 690.6,314.3 691.9,327.2 693.3,333.0 694.5,336.8 695.8,312.0 697.1,304.5 698.6,308.2 699.9,304.2 701.3,313.7 702.4,310.4 703.8,326.5 705.2,326.5 706.5,328.4 707.9,331.6 709.3,341.3 710.7,337.6 712.1,345.1 713.6,328.4 714.9,325.2 716.4,301.4 717.5,253.1 718.8,233.0 720.2,306.2 721.6,322.2 722.9,336.8 724.3,333.4 725.4,346.0 726.8,332.9 728.2,341.6 729.5,343.9 730.9,351.8 732.3,359.1 733.6,357.9 734.7,354.2 736.1,353.4 737.5,362.7 738.8,361.7 740.3,343.6 741.6,338.1 742.9,354.5 744.4,356.9 745.8,348.5 747.0,354.8 748.7,348.6 749.8,354.2 751.3,351.3 752.6,353.2 754.0,317.6 755.4,331.4 756.7,334.5 758.1,335.1 759.5,330.4 760.6,337.8 761.9,339.7 763.3,344.5 764.7,344.5 766.1,337.2 767.5,339.8 768.8,325.9 770.0,333.9 771.3,338.7 772.6,329.7 774.1,339.2 775.4,336.4 776.7,334.7 778.2,321.8 779.3,315.9 780.7,311.9 782.2,298.2 783.5,310.8 784.9,314.2 786.3,311.8 787.7,310.0 789.1,303.6 790.4,282.0 791.8,284.4 793.0,286.1 794.3,268.3 795.6,254.7 797.1,253.2 798.4,251.5 799.7,262.2 800.9,286.8 802.3,266.9 803.7,250.8 805.2,227.8 806.5,258.2 807.9,257.1 809.2,263.7 810.5,246.9 812.0,255.8 813.1,237.8 814.4,217.6 815.9,214.7 817.2,232.9 818.6,246.0 820.1,250.5 821.4,240.6 822.9,253.5 824.3,260.3 825.7,268.8 827.1,277.8 828.2,272.2 829.6,256.5 831.0,199.1 832.3,221.0 833.7,247.4 835.1,238.0 836.4,240.6 837.5,250.2 839.0,258.5 840.3,275.6 841.7,267.9 843.2,270.1 844.5,278.8 845.9,261.3 847.2,246.2 848.3,281.2 849.8,289.2 851.1,265.7 852.5,251.6 853.9,245.5 855.2,259.5 856.5,265.9 858.0,261.9 859.1,265.0 860.5,266.5 862.0,276.7 863.4,284.6 864.8,274.1 866.2,265.2 867.5,278.2 868.9,284.9 870.3,289.3 871.6,258.2 872.8,279.4 874.1,292.7 875.4,307.0 876.9,281.8 878.2,287.5 879.6,275.4 881.1,292.7 882.4,286.6 883.5,274.5 884.9,274.2 886.3,266.2 887.7,286.7 889.0,279.7 890.4,250.5 891.8,245.9 892.9,285.1 894.3,286.0 895.8,306.1 897.1,297.0 898.6,293.3 900.1,290.5 901.5,295.3 902.9,304.4 904.3,289.6 905.6,279.7 907.0,293.0 908.3,237.8 909.7,248.8 910.9,283.2 912.2,286.6 913.6,294.2 915.0,298.4 916.4,296.0 917.8,304.7 919.2,297.7 920.5,300.1 921.6,314.4 923.0,313.3 924.4,316.4 925.8,316.3 927.1,315.9 928.5,313.7 929.9,326.3 931.3,306.9 932.7,321.1 933.9,323.8 935.3,337.3 936.7,333.5 938.2,340.2 939.5,332.7 941.0,325.3 942.3,322.8 943.6,311.2 945.0,274.4 946.4,317.2 947.5,326.6 948.9,320.0 950.2,308.2 951.6,318.3 953.0,326.2" />
<text x="68.0" y="422" text-anchor="middle" font-size="12" fill="#6b7280">2002-11-12</text>
<text x="510.9" y="422" text-anchor="middle" font-size="12" fill="#6b7280">2014-09-03</text>
<text x="954.0" y="422" text-anchor="middle" font-size="12" fill="#6b7280">2026-06-26</text>
</svg>