<svg xmlns="http://www.w3.org/2000/svg" width="980" height="440" viewBox="0 0 980 440">
<rect width="100%" height="100%" fill="white" />
<text x="68" y="30" font-size="20" font-weight="700" fill="#111827">ON RRP</text>
<text x="68" y="50" font-size="12" fill="#6b7280">Raw value</text>
<line x1="598" y1="22" x2="620" y2="22" stroke="#2563eb" stroke-width="3" /><text x="628" y="26" font-size="13" fill="#111827">ON RRP</text>
<line x1="68" y1="388.0" x2="954" y2="388.0" stroke="#e5e7eb" /><text x="58" y="392.0" text-anchor="end" font-size="12" fill="#6b7280">-204.30</text>
<line x1="68" y1="304.5" x2="954" y2="304.5" stroke="#e5e7eb" /><text x="58" y="308.5" text-anchor="end" font-size="12" fill="#6b7280">536.28</text>
<line x1="68" y1="221.0" x2="954" y2="221.0" stroke="#e5e7eb" /><text x="58" y="225.0" text-anchor="end" font-size="12" fill="#6b7280">1276.86</text>
<line x1="68" y1="137.5" x2="954" y2="137.5" stroke="#e5e7eb" /><text x="58" y="141.5" text-anchor="end" font-size="12" fill="#6b7280">2017.44</text>
<line x1="68" y1="54.0" x2="954" y2="54.0" stroke="#e5e7eb" /><text x="58" y="58.0" text-anchor="end" font-size="12" fill="#6b7280">2758.01</text>
<line x1="68" y1="388" x2="954" y2="388" stroke="#9ca3af" />
<line x1="68" y1="54" x2="68" y2="388" stroke="#9ca3af" />
<polyline fill="none" stroke="#2563eb" stroke-width="2.2" points="68.0,364.7 81.7,364.8 102.5,364.7 229.1,364.8 281.2,362.1 282.2,362.1 283.6,362.1 284.3,362.1 285.1,362.1 285.8,362.1 286.8,362.1 287.6,362.1 288.4,362.1 289.1,362.1 289.8,362.1 375.8,364.9 391.0,364.9 452.6,365.0 466.9,364.4 470.8,363.9 471.5,364.7 472.3,364.7 473.1,364.5 473.8,364.6 474.5,364.4 475.3,364.8 476.3,364.7 477.0,364.6 477.9,364.2 478.6,363.4 479.3,363.4 480.0,360.2 481.0,355.5 481.7,359.2 482.4,357.3 483.3,356.8 484.0,353.4 484.7,353.6 485.4,355.1 486.5,354.1 487.2,355.9 487.9,356.9 488.7,359.5 489.4,356.0 490.1,337.7 490.8,354.3 491.6,356.4 492.5,348.3 493.2,341.5 493.9,343.1 494.7,344.3 495.4,340.1 496.2,347.4 496.9,353.3 497.7,353.2 498.4,354.1 499.1,349.5 499.9,349.6 500.7,352.2 501.4,352.2 502.1,354.8 502.9,353.6 503.6,350.6 504.3,351.8 505.0,350.2 505.8,345.5 506.8,344.6 507.5,349.6 508.3,344.9 509.0,343.0 509.7,344.0 510.5,347.9 511.3,350.9 512.0,351.7 512.7,350.9 513.5,352.4 514.3,346.1 515.0,348.2 515.8,348.9 516.5,353.7 517.3,358.3 518.1,360.3 519.1,346.5 519.9,351.6 520.7,348.3 521.4,349.6 522.1,349.0 522.9,351.2 523.7,347.2 524.4,348.1 525.2,354.2 525.9,355.5 526.6,347.9 527.3,357.6 528.1,361.4 529.0,354.7 529.7,353.3 530.4,356.7 531.2,355.2 531.9,354.7 532.6,356.4 533.3,353.0 534.4,352.0 535.1,355.6 535.8,353.2 536.6,345.6 537.3,359.9 538.1,347.0 538.8,353.0 539.6,352.5 540.3,355.7 541.0,354.9 541.8,356.1 542.5,355.0 543.2,356.7 543.9,355.4 544.8,357.3 545.5,355.7 546.2,348.7 546.9,342.5 547.7,352.0 548.5,353.7 549.2,347.7 549.9,345.5 550.7,355.1 551.5,358.2 552.2,351.1 553.3,349.2 554.0,356.2 554.7,355.2 555.4,346.9 556.3,339.9 557.1,350.7 557.8,355.4 558.7,354.8 559.4,357.8 560.1,358.7 560.8,360.0 561.7,358.3 562.4,358.5 563.1,359.2 563.8,360.5 564.6,357.3 565.7,353.2 566.4,360.0 567.2,362.9 567.9,360.4 568.6,361.6 569.3,360.6 570.1,361.5 570.8,362.6 571.5,358.5 572.3,358.1 573.1,360.3 573.8,361.8 574.5,354.8 575.2,348.8 576.1,356.4 576.8,361.5 577.5,357.0 578.3,359.9 579.0,359.3 579.7,355.9 580.4,354.2 581.2,356.8 581.9,354.7 582.7,356.1 583.4,353.6 584.2,345.3 584.9,318.5 585.6,339.5 586.7,350.9 587.4,348.9 588.1,340.7 588.8,350.5 589.7,353.4 590.4,350.5 591.2,341.5 591.9,344.0 592.7,345.8 593.4,330.3 594.2,325.9 595.1,341.4 595.8,355.0 596.8,347.3 597.5,353.5 598.3,350.8 599.0,353.9 599.8,346.6 600.6,341.9 601.3,341.4 602.0,342.3 602.7,338.2 603.5,339.7 604.2,341.5 604.9,352.0 605.8,350.5 606.6,350.6 607.3,347.7 608.0,346.8 608.7,344.1 609.5,347.7 610.3,345.7 611.0,347.5 611.8,347.1 612.5,342.2 613.2,320.0 614.2,343.6 615.0,351.2 615.7,354.2 616.4,341.9 617.1,353.2 617.9,356.5 618.6,348.7 619.3,351.2 620.2,349.6 620.9,350.6 621.6,347.3 622.3,345.4 623.1,344.5 623.9,350.3 624.6,351.3 625.3,352.3 626.1,355.1 626.8,356.6 627.5,361.0 628.2,359.1 629.1,353.4 629.8,357.8 630.5,352.8 631.3,351.8 632.1,328.9 633.1,357.8 633.9,362.5 634.7,361.4 635.4,361.4 636.1,359.4 636.9,360.1 637.7,359.9 638.4,359.9 639.1,363.4 639.9,364.4 640.6,362.6 641.3,362.9 642.2,364.4 643.0,364.6 643.7,363.6 644.4,364.6 645.1,364.4 645.9,364.6 646.6,363.9 647.3,365.0 648.4,363.7 649.1,364.4 649.8,364.9 650.5,363.5 651.3,361.3 652.1,364.7 652.8,364.8 653.6,364.4 654.3,363.9 655.0,364.7 655.7,364.9 656.5,364.8 657.2,364.8 658.0,365.0 658.7,364.8 659.5,364.0 660.2,364.3 660.9,364.6 661.7,364.7 662.5,363.8 663.2,364.7 663.9,364.4 664.6,364.8 665.5,362.9 666.5,364.9 667.2,364.7 668.2,364.9 668.9,364.3 669.7,364.6 670.6,364.6 671.3,364.7 672.0,363.5 673.0,364.8 673.8,364.5 674.5,364.7 675.3,364.7 676.1,364.8 676.8,364.6 677.5,365.0 678.2,364.7 679.0,364.9 679.7,365.0 680.4,364.9 681.1,364.9 682.1,364.9 682.8,365.0 683.5,364.9 684.2,364.8 685.0,364.4 685.8,364.9 686.5,364.8 687.3,364.8 688.0,362.6 688.7,360.0 689.7,364.2 690.5,364.3 691.2,363.4 691.9,364.5 692.6,364.6 693.4,364.4 694.1,363.5 694.8,364.6 695.7,364.8 696.4,364.6 697.1,364.8 697.8,365.0 698.6,364.7 699.3,364.5 700.1,364.8 700.8,362.9 701.6,364.9 702.3,364.8 703.1,364.8 703.8,362.1 704.7,364.9 705.4,364.9 706.1,365.0 706.9,363.5 707.9,364.2 708.7,364.8 709.5,364.9 710.3,363.2 711.0,364.9 711.7,364.5 712.5,364.9 713.3,364.6 714.0,364.9 714.7,364.9 715.5,362.6 716.2,364.8 716.9,349.4 717.6,344.4 718.4,364.3 719.2,364.8 719.9,364.8 720.7,364.9 721.4,364.9 722.1,364.8 722.8,365.0 723.9,365.0 724.6,365.0 725.3,365.0 726.0,365.0 726.8,364.9 727.6,365.0 728.3,365.0 729.1,365.0 729.8,365.0 730.5,365.0 731.2,365.0 732.0,365.0 732.7,365.0 733.4,365.0 734.2,365.0 735.0,365.0 735.7,365.0 736.4,364.9 737.1,365.0 738.0,365.0 738.7,365.0 739.4,365.0 740.1,365.0 741.0,365.0 741.7,365.0 742.7,365.0 743.5,365.0 744.2,365.0 744.9,364.9 745.7,364.9 746.6,365.0 747.3,365.0 748.1,364.8 748.9,364.7 749.6,364.9 750.3,365.0 751.1,365.0 751.9,363.7 752.6,364.9 753.3,364.2 754.0,362.8 754.8,363.7 755.8,364.6 756.5,361.6 757.3,358.9 758.0,353.6 758.7,350.3 759.4,345.2 760.2,341.4 760.9,320.4 761.7,314.5 762.4,308.9 763.2,307.5 763.9,275.7 764.6,270.1 765.5,276.4 766.2,268.0 766.9,265.0 767.6,256.1 768.4,259.9 769.1,252.2 769.8,239.2 770.5,235.6 771.3,242.7 772.1,240.1 772.8,235.6 773.5,212.5 774.3,184.0 775.0,209.8 775.8,200.1 776.6,206.8 777.3,195.6 778.0,212.3 779.0,208.1 779.8,187.5 780.6,193.8 781.3,200.9 782.0,186.3 782.8,167.8 783.6,179.8 784.3,196.7 785.1,191.7 785.9,175.7 786.6,186.4 787.3,180.0 788.1,180.7 788.8,179.2 789.6,184.2 790.3,197.8 791.1,189.3 791.8,171.6 792.5,175.9 793.2,177.1 794.0,167.6 795.0,169.0 795.7,163.9 796.5,162.4 797.2,155.4 797.9,158.3 798.6,134.4 799.5,141.9 800.2,129.2 800.9,114.2 801.8,110.2 802.5,113.9 803.3,120.0 804.0,116.1 804.8,108.8 805.5,112.4 806.2,117.9 806.9,117.0 807.7,114.9 808.4,118.3 809.1,119.9 809.9,115.8 810.7,118.4 811.4,103.5 812.1,91.4 812.8,113.9 813.9,120.0 814.6,112.2 815.3,108.4 816.1,112.3 816.9,129.7 817.6,127.7 818.5,126.4 819.2,122.4 819.9,117.7 820.6,116.1 821.5,104.7 822.3,116.0 823.0,119.2 824.1,124.2 824.8,134.0 825.5,131.3 826.2,127.3 827.1,134.3 827.8,118.3 828.5,120.3 829.2,134.7 830.0,117.5 830.7,113.3 831.4,114.7 832.2,105.2 833.0,106.2 833.7,107.9 834.4,110.4 835.1,113.2 835.9,115.4 836.6,111.2 837.4,121.4 838.2,123.5 838.9,140.4 839.7,142.9 840.4,135.6 841.5,160.7 842.2,170.1 842.9,165.3 843.7,159.6 844.4,160.8 845.1,162.1 845.8,159.2 846.6,172.3 847.4,188.1 848.1,196.5 848.8,201.1 849.6,202.8 850.3,212.9 851.1,225.2 851.8,235.2 852.6,240.9 853.3,243.3 854.0,249.5 854.7,258.5 855.5,259.9 856.3,264.9 857.0,271.9 857.8,278.2 858.5,277.2 859.3,250.1 860.3,287.0 861.2,299.2 861.9,294.9 862.6,299.8 863.4,304.9 864.1,302.5 864.9,300.1 865.6,300.7 866.4,313.5 867.1,306.1 867.8,309.0 868.5,306.5 869.4,315.5 870.1,313.6 870.8,316.1 871.6,314.9 872.3,316.6 873.0,313.3 873.7,318.7 874.5,312.3 875.3,315.4 876.0,320.4 876.7,321.3 877.8,315.8 878.5,314.0 879.3,317.3 880.1,318.8 880.8,321.0 881.5,323.6 882.2,332.0 883.0,328.4 883.7,329.9 884.4,326.2 885.2,326.9 886.0,333.5 886.7,330.5 887.4,318.0 888.1,321.7 888.9,326.2 889.7,335.4 890.4,342.1 891.2,342.3 891.9,347.0 892.7,345.5 893.4,341.9 894.5,349.6 895.2,347.7 895.9,352.5 896.6,351.9 897.5,311.6 898.3,344.1 899.0,351.4 899.9,350.1 900.6,350.8 901.3,355.9 902.0,357.3 902.9,357.2 903.6,338.5 904.3,349.6 905.0,350.7 905.8,342.3 906.5,332.7 907.2,344.2 908.0,353.9 909.0,352.1 909.7,348.2 910.4,350.9 911.2,348.3 911.9,344.6 912.7,349.4 913.4,347.7 914.2,344.4 914.9,345.9 915.7,341.2 916.5,338.2 917.3,344.3 918.0,343.1 918.7,350.1 919.5,340.8 920.2,356.2 920.9,361.7 921.6,362.1 922.4,361.4 923.2,362.6 923.9,363.0 924.6,363.7 925.4,359.5 926.1,362.1 926.8,364.5 927.9,364.3 928.6,363.8 929.3,362.3 930.0,364.2 930.9,364.9 931.6,364.7 932.4,364.7 933.2,364.4 933.9,363.8 934.6,364.4 935.5,364.3 936.3,364.6 937.0,364.8 938.0,364.8 938.8,363.8 939.5,364.8 940.3,364.9 941.0,364.9 941.8,364.8 942.5,364.9 943.2,364.9 943.9,364.8 944.7,363.2 945.5,364.9 946.2,364.9 946.9,364.9 947.7,364.9 948.4,364.8 949.1,364.5 949.9,362.2 950.7,364.8 951.4,364.8 952.1,364.9 952.9,364.9 953.7,364.2" />
<text x="68.0" y="422" text-anchor="middle" font-size="12" fill="#6b7280">2003-02-07</text>
<text x="510.9" y="422" text-anchor="middle" font-size="12" fill="#6b7280">2014-10-18</text>
<text x="954.0" y="422" text-anchor="middle" font-size="12" fill="#6b7280">2026-06-29</text>
</svg>