<svg xmlns="http://www.w3.org/2000/svg" width="980" height="440" viewBox="0 0 980 440">
<rect width="100%" height="100%" fill="white" />
<text x="68" y="30" font-size="20" font-weight="700" fill="#111827">SOFR</text>
<text x="68" y="50" font-size="12" fill="#6b7280">Raw value</text>
<line x1="598" y1="22" x2="620" y2="22" stroke="#2563eb" stroke-width="3" /><text x="628" y="26" font-size="13" fill="#111827">SOFR</text>
<line x1="68" y1="388.0" x2="954" y2="388.0" stroke="#e5e7eb" /><text x="58" y="392.0" text-anchor="end" font-size="12" fill="#6b7280">-0.42</text>
<line x1="68" y1="304.5" x2="954" y2="304.5" stroke="#e5e7eb" /><text x="58" y="308.5" text-anchor="end" font-size="12" fill="#6b7280">1.14</text>
<line x1="68" y1="221.0" x2="954" y2="221.0" stroke="#e5e7eb" /><text x="58" y="225.0" text-anchor="end" font-size="12" fill="#6b7280">2.71</text>
<line x1="68" y1="137.5" x2="954" y2="137.5" stroke="#e5e7eb" /><text x="58" y="141.5" text-anchor="end" font-size="12" fill="#6b7280">4.27</text>
<line x1="68" y1="54.0" x2="954" y2="54.0" stroke="#e5e7eb" /><text x="58" y="58.0" text-anchor="end" font-size="12" fill="#6b7280">5.83</text>
<line x1="68" y1="388" x2="954" y2="388" stroke="#9ca3af" />
<line x1="68" y1="54" x2="68" y2="388" stroke="#9ca3af" />
<polyline fill="none" stroke="#2563eb" stroke-width="2.2" points="68.0,267.7 68.9,272.0 70.4,271.5 71.8,270.9 72.7,273.1 74.2,274.2 75.1,273.6 76.5,272.0 78.0,274.2 78.9,273.1 80.4,269.9 81.3,273.1 82.7,276.3 84.5,273.6 85.4,268.8 86.8,273.1 88.3,275.2 89.2,264.0 90.7,265.1 91.6,262.9 93.0,264.0 94.5,256.5 95.7,262.4 97.2,264.5 98.6,261.3 99.5,264.0 101.0,264.0 101.9,265.1 103.3,265.1 104.8,266.1 105.7,263.5 107.2,262.4 108.0,264.0 109.5,264.0 111.0,261.3 111.9,262.4 113.6,261.3 115.1,261.9 116.0,261.9 117.5,261.9 118.4,262.9 119.8,262.9 121.3,246.9 122.2,249.0 123.9,250.6 125.4,247.4 126.3,248.5 127.8,249.6 128.7,248.5 130.1,246.9 131.6,245.8 132.5,247.4 134.3,248.0 135.7,245.8 136.9,246.4 138.4,248.5 139.8,246.4 141.0,242.6 142.5,248.0 144.0,242.1 144.9,236.8 146.6,235.2 148.1,205.2 149.3,234.6 150.7,234.6 152.2,237.3 153.1,236.8 154.9,237.3 156.3,237.8 157.2,227.7 158.7,237.3 159.6,238.9 161.0,238.4 162.8,237.3 163.7,237.3 165.2,238.9 166.6,238.4 167.5,238.4 169.0,237.8 169.9,234.1 171.4,233.6 172.8,237.3 173.7,235.7 175.2,234.1 176.1,234.1 177.5,234.6 179.0,233.6 179.9,232.0 181.7,235.2 183.1,233.0 184.0,232.0 185.5,235.2 186.4,237.3 187.8,233.0 189.3,237.8 190.2,238.9 192.0,237.3 193.4,237.3 194.3,237.3 195.8,238.4 196.7,240.0 198.1,239.4 199.6,237.8 200.5,236.2 202.0,231.4 203.7,233.0 204.6,236.8 206.1,233.6 207.0,236.8 208.5,236.8 209.9,237.3 210.8,248.5 212.3,252.8 213.2,252.8 214.6,251.7 216.1,252.8 217.0,253.9 218.5,250.6 219.3,250.1 221.1,247.4 222.6,251.2 223.5,248.0 224.9,229.3 226.4,266.7 227.3,266.7 228.8,265.1 229.7,268.3 231.1,266.7 232.9,258.7 233.8,265.1 235.2,265.6 236.7,268.3 237.6,271.5 239.1,281.1 240.0,282.2 241.7,281.1 243.2,281.6 244.1,281.1 245.6,282.7 247.3,282.7 248.2,282.7 249.7,283.2 251.1,279.0 252.0,283.8 253.5,284.3 255.3,283.2 256.4,282.7 257.9,282.7 259.4,283.2 260.3,282.7 262.0,283.2 263.5,283.8 264.4,281.1 265.9,280.0 266.8,281.1 268.2,281.6 270.0,280.0 270.9,281.1 272.3,281.1 273.8,280.6 274.7,305.7 276.2,306.2 277.1,306.7 278.5,360.2 280.0,364.4 280.9,365.0 282.4,365.0 283.2,365.0 284.7,365.0 286.5,362.3 287.4,363.9 288.8,365.0 290.3,363.9 291.2,363.4 292.7,362.8 293.5,362.3 295.0,363.4 296.5,363.4 297.4,364.4 299.1,362.3 300.6,362.3 301.5,361.8 303.0,361.2 303.9,361.2 305.3,360.7 306.8,361.2 307.7,360.7 309.2,360.2 310.9,360.2 311.8,360.2 313.3,359.6 314.2,359.1 315.6,360.2 317.1,360.2 318.0,360.2 319.5,360.7 320.3,360.7 321.8,360.7 323.3,360.2 324.2,361.8 325.6,361.2 326.5,361.8 328.0,360.7 329.8,360.7 330.6,360.7 332.1,360.2 333.6,361.2 334.5,361.8 335.9,361.8 336.8,360.2 338.3,360.7 340.1,360.7 341.0,360.7 342.4,361.8 343.9,360.7 344.8,360.7 346.3,360.2 347.1,360.2 348.9,360.7 350.4,360.7 351.3,362.8 352.7,361.2 354.5,361.2 355.4,360.7 356.9,361.2 358.3,361.2 359.2,360.7 360.7,361.8 362.4,360.7 363.3,361.8 365.1,360.2 366.6,360.7 367.5,361.2 369.2,362.3 370.7,362.3 371.6,363.4 373.1,361.8 373.9,364.4 375.4,362.3 377.2,362.3 378.1,364.4 379.5,364.4 381.0,364.4 381.9,364.4 383.4,364.4 384.2,365.0 385.7,365.0 387.2,365.0 388.1,365.0 389.5,365.0 391.3,365.0 392.2,365.0 393.7,365.0 394.5,365.0 396.0,365.0 397.5,365.0 398.4,365.0 399.8,365.0 400.7,365.0 402.2,365.0 403.7,365.0 404.6,365.0 406.0,365.0 406.9,365.0 408.7,365.0 410.2,365.0 411.0,365.0 412.5,365.0 414.0,362.8 414.9,362.8 416.3,362.8 417.2,362.8 419.0,362.8 420.5,362.8 421.3,362.8 422.8,362.8 424.3,362.8 425.2,362.8 426.6,362.8 427.5,362.8 429.0,362.8 430.5,362.8 431.4,362.8 432.8,362.8 433.7,362.8 435.2,362.8 436.9,362.8 437.8,362.8 439.3,362.8 440.8,362.8 441.7,362.8 443.1,362.8 444.0,362.8 445.5,362.8 447.3,362.8 448.1,362.8 449.6,363.9 451.1,363.4 452.0,362.8 453.4,362.8 454.3,362.8 455.8,362.8 457.6,362.8 458.4,362.8 459.9,362.8 461.7,362.8 462.6,362.8 464.0,362.8 465.5,362.8 466.4,362.8 467.9,362.8 469.6,362.8 470.5,362.8 472.0,362.8 472.9,362.8 474.3,362.8 476.1,362.8 477.0,362.8 478.5,363.4 479.9,362.8 480.8,362.8 482.3,362.8 483.2,362.8 484.6,362.8 486.4,362.8 487.3,362.8 488.8,362.8 490.2,362.8 491.1,362.8 492.6,362.8 493.5,349.5 495.0,351.1 496.4,350.5 497.3,350.0 498.8,349.5 499.7,349.5 501.1,350.0 502.9,350.5 503.8,351.1 505.3,350.5 506.7,349.5 507.6,323.3 509.1,323.8 510.0,323.3 511.4,323.3 512.9,323.8 513.8,323.8 515.6,322.8 517.0,323.8 517.9,325.4 519.4,328.6 520.3,288.0 522.0,288.6 523.5,284.3 524.4,284.3 526.2,283.2 527.6,283.2 528.5,283.2 530.0,283.8 531.5,283.8 532.3,243.7 533.8,242.6 534.7,243.7 536.2,243.7 537.6,243.2 538.5,243.7 540.0,244.2 540.9,243.7 542.4,243.2 544.1,243.2 545.0,243.7 546.5,244.2 548.0,244.2 548.8,205.8 550.3,206.3 551.2,206.3 552.7,203.1 554.4,202.6 555.3,203.1 556.8,203.1 558.3,204.7 559.1,203.1 560.6,202.6 561.5,162.5 563.0,163.6 564.7,162.5 565.6,162.5 567.1,163.0 568.9,162.0 569.7,162.0 571.2,162.5 572.7,162.5 573.6,134.7 575.0,135.8 575.9,135.8 577.7,135.8 579.5,135.8 580.9,135.3 581.8,135.8 583.6,135.8 585.1,135.8 585.9,135.8 587.4,135.3 588.3,122.4 589.8,122.4 591.2,122.4 592.1,122.4 593.9,122.4 595.4,122.4 596.2,122.4 597.7,122.4 598.6,122.4 600.1,120.8 601.5,122.4 602.4,109.1 603.9,106.9 604.8,105.3 606.3,108.6 608.0,109.1 608.9,109.1 610.4,109.1 611.8,109.1 612.7,108.6 614.2,108.6 615.1,95.2 616.6,95.2 618.0,95.2 618.9,95.7 620.4,95.7 621.3,95.2 623.0,94.1 624.5,95.7 625.4,95.7 626.9,95.7 628.6,95.7 629.5,95.7 631.0,95.2 632.5,95.2 633.6,95.2 635.1,95.7 636.6,95.2 637.5,95.2 638.9,95.2 639.8,82.4 641.3,82.4 642.8,82.4 643.6,82.4 645.1,82.4 646.0,82.4 647.5,82.4 648.9,82.4 649.8,81.8 651.6,82.4 653.1,82.4 654.0,82.4 655.4,81.8 656.3,82.4 657.8,81.3 659.3,81.3 660.1,81.3 661.9,81.8 663.4,81.8 664.3,82.4 665.7,82.4 666.6,81.8 668.1,81.3 669.6,81.3 670.4,81.3 671.9,81.3 672.8,81.3 674.3,81.8 676.0,81.3 676.9,77.6 678.4,81.3 679.9,81.3 680.8,81.8 682.2,81.8 683.1,81.3 684.9,77.0 686.6,77.6 688.1,81.8 689.0,81.8 690.8,81.3 692.2,81.8 693.1,81.3 694.6,81.8 695.5,81.3 696.9,81.8 698.4,81.8 699.3,81.8 701.1,82.4 702.5,81.8 703.4,81.3 704.9,81.8 705.8,81.8 707.3,81.8 708.7,81.8 709.6,81.8 711.1,81.3 712.8,79.7 713.7,81.3 715.2,81.8 716.1,81.8 717.6,81.8 719.0,81.8 719.9,81.8 721.4,80.2 722.3,81.8 723.7,81.8 725.2,81.8 726.1,81.8 727.6,81.8 728.5,81.3 730.2,80.8 731.7,80.8 732.6,80.8 734.0,81.8 735.5,80.8 736.7,81.8 738.2,80.2 739.6,77.0 740.8,81.3 742.3,80.2 743.8,80.2 744.6,80.2 746.1,80.2 747.0,79.7 748.5,78.1 749.9,81.3 750.8,80.2 752.3,80.2 753.2,81.3 754.7,81.8 756.1,80.2 757.0,80.8 758.8,79.7 760.3,80.2 761.1,80.8 762.6,78.1 763.5,107.5 765.0,106.9 766.4,100.5 767.3,106.4 768.8,106.9 769.7,108.6 771.4,106.4 772.9,107.5 773.8,107.5 775.3,108.6 776.7,108.0 777.6,108.0 779.4,120.3 780.9,121.4 781.7,121.4 783.2,120.8 785.0,117.6 785.9,120.3 787.3,117.6 788.2,119.8 789.7,121.4 791.2,135.3 792.3,127.2 794.1,130.5 795.6,137.4 796.5,135.8 797.9,136.9 799.7,136.3 800.6,133.7 802.1,133.1 803.5,133.1 804.4,132.6 805.9,133.7 806.8,134.2 808.5,134.2 810.0,134.2 810.9,131.0 812.4,133.7 813.8,134.2 814.7,135.8 816.2,135.3 817.1,135.8 818.6,133.1 820.0,129.9 820.9,131.0 822.4,130.5 823.3,134.2 824.7,135.3 826.5,135.8 827.4,134.2 828.9,129.9 830.3,134.2 831.2,136.3 832.7,135.8 833.6,135.8 835.0,137.9 836.8,135.3 837.7,133.1 839.2,136.9 840.6,136.3 841.5,136.9 843.0,135.3 844.8,136.3 845.6,130.5 847.1,128.3 848.9,134.2 849.8,135.3 851.2,132.1 852.1,135.8 853.6,136.9 855.1,132.6 855.9,131.0 857.4,133.7 858.3,133.1 859.8,134.2 861.2,133.7 862.1,134.7 863.6,131.5 864.5,133.7 866.3,129.9 867.7,130.5 868.6,129.4 870.1,131.5 871.6,144.3 872.4,142.2 873.9,139.0 874.8,142.2 876.3,145.4 878.0,141.7 878.9,142.2 880.4,140.6 881.9,137.4 882.7,149.7 884.2,151.8 885.1,155.6 886.9,151.8 888.3,155.0 889.2,155.6 890.7,149.2 892.5,151.3 893.3,155.6 894.8,157.2 896.3,165.2 897.2,170.0 898.6,170.0 900.4,164.1 901.6,165.2 903.1,170.5 904.5,171.1 905.4,170.0 907.2,171.6 908.7,170.0 909.5,170.5 911.0,168.4 911.9,171.1 913.4,170.5 915.1,167.3 916.0,170.0 917.5,169.5 919.0,167.3 919.8,170.0 921.3,171.1 922.2,170.5 923.7,172.1 925.1,172.1 926.0,170.5 927.5,168.9 929.3,170.5 930.1,174.8 931.6,170.0 932.5,170.5 934.0,171.1 935.4,170.0 936.3,170.0 937.8,172.1 938.7,173.2 940.2,173.7 941.6,176.9 942.5,178.0 944.3,171.6 945.8,170.5 946.6,172.1 948.1,173.2 949.0,170.5 950.5,171.6 952.2,172.1 953.1,172.1" />
<text x="68.0" y="422" text-anchor="middle" font-size="12" fill="#6b7280">2018-04-03</text>
<text x="510.9" y="422" text-anchor="middle" font-size="12" fill="#6b7280">2022-05-16</text>
<text x="954.0" y="422" text-anchor="middle" font-size="12" fill="#6b7280">2026-06-29</text>
</svg>