<svg xmlns="http://www.w3.org/2000/svg" width="980" height="440" viewBox="0 0 980 440">
<rect width="100%" height="100%" fill="white" />
<text x="68" y="30" font-size="20" font-weight="700" fill="#111827">TGA</text>
<text x="68" y="50" font-size="12" fill="#6b7280">Raw value</text>
<line x1="598" y1="22" x2="620" y2="22" stroke="#2563eb" stroke-width="3" /><text x="628" y="26" font-size="13" fill="#111827">TGA</text>
<line x1="68" y1="388.0" x2="954" y2="388.0" stroke="#e5e7eb" /><text x="58" y="392.0" text-anchor="end" font-size="12" fill="#6b7280">-141290.36</text>
<line x1="68" y1="304.5" x2="954" y2="304.5" stroke="#e5e7eb" /><text x="58" y="308.5" text-anchor="end" font-size="12" fill="#6b7280">384462.82</text>
<line x1="68" y1="221.0" x2="954" y2="221.0" stroke="#e5e7eb" /><text x="58" y="225.0" text-anchor="end" font-size="12" fill="#6b7280">910216.00</text>
<line x1="68" y1="137.5" x2="954" y2="137.5" stroke="#e5e7eb" /><text x="58" y="141.5" text-anchor="end" font-size="12" fill="#6b7280">1435969.18</text>
<line x1="68" y1="54.0" x2="954" y2="54.0" stroke="#e5e7eb" /><text x="58" y="58.0" text-anchor="end" font-size="12" fill="#6b7280">1961722.36</text>
<line x1="68" y1="388" x2="954" y2="388" stroke="#9ca3af" />
<line x1="68" y1="54" x2="68" y2="388" stroke="#9ca3af" />
<polyline fill="none" stroke="#2563eb" stroke-width="2.2" points="68.0,364.6 69.4,364.8 70.9,364.7 72.3,364.4 73.8,364.8 75.2,364.7 76.7,364.7 78.1,364.6 79.6,364.5 81.0,364.1 82.4,364.4 83.9,364.5 85.3,364.5 86.8,364.4 88.2,364.6 89.7,364.5 91.1,364.6 92.6,364.7 94.0,364.6 95.4,364.8 96.9,364.4 98.3,364.7 99.8,364.7 101.2,364.7 102.7,364.8 104.1,364.7 105.5,364.7 107.0,364.6 108.4,364.8 109.9,364.7 111.3,364.7 112.8,364.7 114.2,364.7 115.7,364.7 117.1,364.8 118.5,364.5 120.0,364.6 121.4,364.7 122.9,364.9 124.3,364.6 125.8,364.6 127.2,364.8 128.7,364.8 130.1,364.8 131.5,364.8 133.0,364.8 134.4,364.5 135.9,364.7 137.3,364.7 138.8,364.7 140.2,364.8 141.7,364.7 143.1,364.8 144.5,364.8 146.0,364.7 147.4,364.7 148.9,364.8 150.3,364.7 151.8,364.9 153.2,364.8 154.7,364.7 156.1,364.7 157.5,364.8 159.0,364.7 160.4,364.8 161.9,364.7 163.3,364.8 164.8,364.8 166.2,364.8 167.6,364.8 169.1,364.7 170.5,364.8 172.0,364.6 173.4,364.8 174.9,364.8 176.3,364.8 177.8,364.8 179.2,364.8 180.6,364.7 182.1,364.8 183.5,364.8 185.0,364.7 186.4,364.7 187.9,364.8 189.3,364.8 190.8,364.7 192.2,364.7 193.6,364.8 195.1,364.7 196.5,364.7 198.0,364.8 199.4,364.8 200.9,364.8 202.3,364.7 203.8,364.8 205.2,364.8 206.6,364.8 208.1,364.8 209.5,364.6 211.0,364.5 212.4,364.8 213.9,364.8 215.3,364.8 216.7,364.8 218.2,364.8 219.6,364.7 221.1,364.8 222.5,364.7 224.0,364.8 225.4,364.8 226.9,364.8 228.3,364.7 229.7,364.8 231.2,364.7 232.6,363.2 234.1,364.9 235.5,364.7 237.0,364.8 238.4,364.8 239.9,364.8 241.3,364.8 242.7,364.8 244.2,364.8 245.6,364.8 247.1,364.7 248.5,364.7 250.0,364.8 251.4,364.8 252.9,364.7 254.3,364.7 255.7,364.8 257.2,364.8 258.6,364.7 260.1,364.7 261.5,364.7 263.0,364.9 264.4,364.8 265.9,364.7 267.3,364.7 268.7,364.8 270.2,364.7 271.6,364.8 273.1,364.8 274.5,364.8 276.0,364.8 277.4,364.7 278.8,364.7 280.3,364.8 281.7,364.8 283.2,364.8 284.6,364.8 286.1,364.2 287.5,364.4 289.0,349.6 290.4,355.7 291.8,355.3 293.3,357.7 294.7,345.6 296.2,355.1 297.6,359.9 299.1,358.9 300.5,360.6 302.0,357.2 303.4,354.0 304.8,358.1 306.3,358.9 307.7,352.1 309.2,353.5 310.6,361.3 312.1,360.6 313.5,346.7 315.0,360.1 316.4,353.9 317.8,354.3 319.3,360.8 320.7,359.9 322.2,361.5 323.6,359.5 325.1,361.9 326.5,358.7 328.0,353.7 329.4,361.4 330.8,360.5 332.3,350.5 333.7,337.2 335.2,342.7 336.6,348.2 338.1,358.2 339.5,359.4 340.9,357.3 342.4,359.9 343.8,363.7 345.3,356.5 346.7,360.1 348.2,361.4 349.6,360.4 351.1,358.3 352.5,361.4 353.9,357.4 355.4,361.2 356.8,361.1 358.3,361.9 359.7,362.0 361.2,356.4 362.6,361.9 364.1,359.5 365.5,362.1 366.9,360.9 368.4,362.2 369.8,351.0 371.3,347.2 372.7,356.2 374.2,350.1 375.6,358.2 377.1,358.1 378.5,358.9 379.9,356.3 381.4,361.5 382.8,349.0 384.3,349.7 385.7,352.2 387.2,359.5 388.6,346.0 390.1,353.4 391.5,351.2 392.9,356.5 394.4,362.4 395.8,362.3 397.3,363.4 398.7,356.7 400.2,362.1 401.6,355.3 403.0,359.7 404.5,358.5 405.9,361.1 407.4,347.7 408.8,351.7 410.3,353.2 411.7,346.9 413.2,356.3 414.6,359.3 416.0,358.9 417.5,352.2 418.9,358.4 420.4,353.1 421.8,347.6 423.3,351.3 424.7,355.9 426.2,347.3 427.6,349.5 429.0,355.6 430.5,358.9 431.9,361.1 433.4,361.6 434.8,358.1 436.3,353.9 437.7,355.1 439.2,355.6 440.6,361.1 442.0,361.7 443.5,360.2 444.9,356.8 446.4,354.2 447.8,357.0 449.3,354.3 450.7,360.0 452.1,358.7 453.6,358.7 455.0,354.8 456.5,356.2 457.9,345.1 459.4,342.7 460.8,360.3 462.3,360.8 463.7,353.0 465.1,346.7 466.6,354.4 468.0,356.0 469.5,355.4 470.9,359.6 472.4,359.4 473.8,358.4 475.3,361.0 476.7,358.5 478.1,360.1 479.6,357.7 481.0,359.5 482.5,354.4 483.9,348.9 485.4,352.9 486.8,351.4 488.3,359.8 489.7,358.1 491.1,356.6 492.6,349.4 494.0,355.6 495.5,347.9 496.9,351.0 498.4,359.6 499.8,360.2 501.3,352.1 502.7,349.7 504.1,356.1 505.6,355.7 507.0,353.2 508.5,359.2 509.9,359.4 511.4,347.3 512.8,350.2 514.2,345.9 515.7,347.9 517.1,350.4 518.6,351.7 520.0,347.3 521.5,335.1 522.9,340.4 524.4,333.6 525.8,340.3 527.2,354.7 528.7,359.3 530.1,351.9 531.6,356.8 533.0,341.7 534.5,329.4 535.9,336.7 537.4,336.1 538.8,332.6 540.2,329.4 541.7,337.5 543.1,334.3 544.6,334.4 546.0,345.1 547.5,351.9 548.9,341.2 550.4,352.3 551.8,356.0 553.2,360.8 554.7,344.4 556.1,331.8 557.6,334.4 559.0,319.4 560.5,317.4 561.9,311.2 563.4,315.2 564.8,327.8 566.2,332.0 567.7,318.4 569.1,323.6 570.6,322.9 572.0,312.1 573.5,318.7 574.9,323.0 576.3,328.8 577.8,312.0 579.2,315.4 580.7,313.9 582.1,324.3 583.6,325.2 585.0,328.1 586.5,311.5 587.9,310.3 589.3,303.3 590.8,299.2 592.2,301.9 593.7,300.5 595.1,314.0 596.6,305.1 598.0,306.4 599.5,303.5 600.9,317.0 602.3,324.5 603.8,351.5 605.2,354.3 606.7,351.4 608.1,339.4 609.6,326.7 611.0,336.0 612.5,338.4 613.9,341.2 615.3,332.5 616.8,338.4 618.2,335.2 619.7,341.8 621.1,352.5 622.6,359.6 624.0,345.3 625.5,340.1 626.9,337.1 628.3,334.8 629.8,337.8 631.2,338.2 632.7,353.5 634.1,335.3 635.6,332.8 637.0,322.8 638.4,333.2 639.9,331.5 641.3,334.6 642.8,315.3 644.2,317.3 645.7,321.8 647.1,302.0 648.6,312.0 650.0,313.9 651.4,320.9 652.9,306.2 654.3,313.7 655.8,310.2 657.2,313.7 658.7,310.2 660.1,314.1 661.6,312.2 663.0,307.1 664.4,312.7 665.9,306.3 667.3,311.4 668.8,311.5 670.2,312.4 671.7,306.1 673.1,308.9 674.6,303.7 676.0,309.6 677.4,312.5 678.9,330.6 680.3,317.3 681.8,316.3 683.2,320.3 684.7,302.0 686.1,314.1 687.6,326.2 689.0,335.8 690.4,326.1 691.9,332.0 693.3,334.9 694.8,344.6 696.2,345.6 697.7,341.9 699.1,325.8 700.5,312.3 702.0,314.0 703.4,303.6 704.9,304.9 706.3,308.2 707.8,313.6 709.2,307.1 710.7,307.3 712.1,301.4 713.5,299.9 715.0,297.5 716.4,306.1 717.9,308.0 719.3,297.4 720.8,224.2 722.2,207.1 723.7,178.6 725.1,157.4 726.5,126.3 728.0,107.6 729.4,103.0 730.9,78.9 732.3,88.4 733.8,104.5 735.2,105.2 736.7,109.1 738.1,98.9 739.5,98.6 741.0,98.6 742.4,111.3 743.9,124.6 745.3,121.9 746.8,111.1 748.2,100.4 749.6,107.2 751.1,107.4 752.5,116.7 754.0,138.5 755.4,163.4 756.9,202.7 758.3,218.6 759.8,211.9 761.2,222.8 762.6,236.5 764.1,249.6 765.5,248.9 767.0,245.9 768.4,257.9 769.9,287.3 771.3,311.8 772.8,321.5 774.2,329.0 775.6,334.2 777.1,353.2 778.5,331.7 780.0,324.4 781.4,339.5 782.9,347.3 784.3,352.1 785.8,303.7 787.2,287.9 788.6,258.2 790.1,255.6 791.5,257.1 793.0,274.9 794.4,274.2 795.9,278.6 797.3,215.6 798.8,215.4 800.2,235.1 801.6,250.7 803.1,245.1 804.5,254.3 806.0,268.1 807.4,271.2 808.9,279.0 810.3,268.3 811.7,271.3 813.2,256.0 814.6,268.9 816.1,264.8 817.5,281.8 819.0,289.4 820.4,296.9 821.9,292.5 823.3,298.3 824.7,311.7 826.2,276.6 827.6,287.7 829.1,305.0 830.5,328.6 832.0,336.4 833.4,348.2 834.9,319.2 836.3,334.2 837.7,355.7 839.2,358.5 840.6,321.6 842.1,299.6 843.5,281.2 845.0,283.4 846.4,296.3 847.9,290.8 849.3,282.7 850.7,257.4 852.2,252.9 853.6,233.0 855.1,242.8 856.5,253.4 858.0,257.2 859.4,249.3 860.9,245.1 862.3,246.6 863.7,231.9 865.2,232.5 866.6,240.8 868.1,243.5 869.5,238.1 871.0,253.6 872.4,216.0 873.8,230.3 875.3,250.4 876.7,252.7 878.2,250.7 879.6,244.6 881.1,246.2 882.5,240.7 884.0,239.4 885.4,247.1 886.8,245.5 888.3,237.4 889.7,238.2 891.2,233.7 892.6,231.8 894.1,246.1 895.5,240.2 897.0,243.6 898.4,251.2 899.8,263.7 901.3,241.0 902.7,234.0 904.2,257.4 905.6,284.2 907.1,308.4 908.5,317.0 910.0,269.2 911.4,272.9 912.8,285.7 914.3,305.4 915.7,311.9 917.2,308.5 918.6,318.5 920.1,306.7 921.5,285.5 923.0,271.9 924.4,258.8 925.8,237.7 927.3,237.3 928.7,221.4 930.2,216.1 931.6,216.0 933.1,216.7 934.5,233.2 935.9,232.6 937.4,241.8 938.8,219.0 940.3,220.2 941.7,224.6 943.2,232.4 944.6,226.7 946.1,246.7 947.5,205.8 948.9,226.2 950.4,241.5 951.8,226.5 953.3,225.7" />
<text x="68.0" y="422" text-anchor="middle" font-size="12" fill="#6b7280">2002-12-18</text>
<text x="510.9" y="422" text-anchor="middle" font-size="12" fill="#6b7280">2014-09-20</text>
<text x="954.0" y="422" text-anchor="middle" font-size="12" fill="#6b7280">2026-06-24</text>
</svg>